<svg width="1133" height="208.00000000000003" xmlns="http://www.w3.org/2000/svg" data-name="Layer 1">
 <title>Artboard 1</title>

 <g>
  <title>Layer 1</title>
  <path id="svg_1" fill="#eab0e4" d="m305.48366,158.13876q-0.0005,-0.53854 0.00838,-1.0757c0.39486,-23.96822 14.90332,-51.35507 40.65027,-55.13865a34.51145,34.51145 0 0 1 26.08068,6.56431a4.115,4.115 0 0 1 1.84274,2.57629a4.374,4.374 0 0 1 -0.72545,2.40673l-4.42188,8.3183a6.85747,6.85747 0 0 1 -1.81773,2.44779c-1.8354,1.34092 -4.37035,0.572 -6.603,0.14507c-7.81556,-1.49451 -16.036,2.24219 -21.25117,8.25207s-7.73505,13.97063 -8.55661,21.88527c-0.52287,5.03719 -0.37307,10.309 1.75473,14.90452c3.95869,8.54986 14.47667,12.91677 23.74305,11.2122c2.295,-0.42218 4.67023,-1.15726 6.90821,-0.49632c2.45017,0.7236 4.13808,2.96733 5.268,5.25866a23.72089,23.72089 0 0 1 2.1665,6.87349a5.50033,5.50033 0 0 1 -0.34025,3.554c-0.87414,1.53919 -2.82808,2.02179 -4.571,2.33087c-8.78148,1.55725 -17.79411,2.44722 -26.61171,1.10953s-17.48648,-5.07157 -23.52942,-11.6307c-7.20151,-7.81669 -9.98442,-18.84178 -9.99434,-29.49773z"/>
  <path id="svg_2" fill="#8195d2" d="m432.69101,186c-0.57,2.44 -1.54,5.21 -3.92,6.01c-2.09,0.69 -4.43,-0.58 -5.66,-2.41a14.774,14.774 0 0 1 -1.88,-6.28a113.40184,113.40184 0 0 1 -1.25,-14.25a12.82611,12.82611 0 0 0 -0.36,-3.56a3.38,3.38 0 0 0 -6.36,-0.87a10.49014,10.49014 0 0 0 -1.39,4.51a12.45513,12.45513 0 0 1 -1.23,4.56a2.94019,2.94019 0 0 1 -1.93,1.56c-1.45,0.22 -2.58,-1.21 -3.29,-2.5c-2.24,-4.11 -2.64,-7.91 -2.97,-13.44c0.21,-14.77 0.48,-29.55 0.9,-44.32c0.17,-5.99 1.6,-8.28 7.25,-9.92a60.73076,60.73076 0 0 1 17.73,-2.39a2.92928,2.92928 0 0 1 1.82,0.44a3.06184,3.06184 0 0 1 0.83,2.29q0.435,6.06 0.86,12.12a0.6602,0.6602 0 0 0 0.01,0.14a45.90183,45.90183 0 0 1 32.56,-14.5a29.11674,29.11674 0 0 1 12.22,2.14a17.19937,17.19937 0 0 1 8.9,8.37c2.08,4.6 1.55,9.91 0.98,14.93q-0.795,6.975 -1.59,13.96a1.16975,1.16975 0 0 1 -1.77,1.22c-6.73,-2.02 -13.15,-5.38 -20.15,-6c-9.35,-0.84 -18.45,3.32 -26.29,8.49a10.18085,10.18085 0 0 0 -3,2.65c-1.33,1.99 -1.17,4.58 -1,6.96a214.30836,214.30836 0 0 1 -0.01,30.09l-0.01,0z"/>
  <path id="svg_3" fill="#badeb8" d="m432.69101,186l0.01,0q-0.315,4.53 -0.82,9.03a4.78607,4.78607 0 0 1 -1.23,3.24a4.73341,4.73341 0 0 1 -2.71,0.82a205.06832,205.06832 0 0 1 -22.17,0.8c-1.31,-0.02 -2.86,-0.2 -3.48,-1.36a3.86228,3.86228 0 0 1 -0.29,-1.82q0.195,-18.69 0.45,-37.38c0.33,5.53 0.73,9.33 2.97,13.44c0.71,1.29 1.84,2.72 3.29,2.5a2.94019,2.94019 0 0 0 1.93,-1.56a12.45513,12.45513 0 0 0 1.23,-4.56a10.49014,10.49014 0 0 1 1.39,-4.51a3.38,3.38 0 0 1 6.36,0.87a12.82611,12.82611 0 0 1 0.36,3.56a113.40184,113.40184 0 0 0 1.25,14.25a14.774,14.774 0 0 0 1.88,6.28c1.23,1.83 3.57,3.1 5.66,2.41c2.38,-0.8 3.35,-3.57 3.92,-6.01z"/>
  <path id="svg_4" fill="#fef0a5" d="m552.95101,159.03011c0.24,3.48 0.01,6.99 -0.03,10.48c-0.04,4.06 -0.16,8.12 -0.15,12.19l0,0.05l-1.07,0.01c-3.49,-0.19 -6.97,-0.39 -10.46,-0.56l0.02,-0.44c-1.46,-10.38 -0.78,-20.94 -0.44,-31.42q0.75,-22.695 -0.67,-45.41l-0.02,-0.44c3.36,-0.13 6.72,-0.34 10.07,-0.65l1.12,-0.47c0.96,1.82 0.8,4.02 0.89,6.04c0.1,2.38 -0.23,4.78 -0.3,7.17c-0.08,2.71 -0.1,5.43 -0.12,8.14c-0.02,3.51 -0.08,7.01 0,10.52c0.08,3.26 0.42,6.52 0.46,9.78c0.05,5.02 0.36,10.01 0.7,15.01z"/>
  <path id="svg_5" fill="#eab0e4" d="m552.97101,193.89011a16.63473,16.63473 0 0 1 -0.44,3.79a4.6199,4.6199 0 0 1 -5.34,3.93c-4.67,-0.5 -9.36,-0.89 -14.05,-1.2c-4.44,-0.3 -7.43,-0.26 -11.88,-0.51c-1.39,-0.08 -3.72,0.39 -4.55,-1.1a3.58492,3.58492 0 0 1 -0.45,-1.9c0.33,-6.59 0.39,-11.6 0.45,-16.37c4.22,-0.02 8.44,0.05 12.66,0.18c3.96,0.11 7.91,0.29 11.87,0.49c3.49,0.17 6.97,0.37 10.46,0.56l1.07,-0.01c0.01,4.04 0.19,8.1 0.2,12.14z"/>
  <path id="svg_6" fill="#fff" d="m551.11101,102.01011l0.21,0.36l-1.12,0.47c-3.35,0.31 -6.71,0.52 -10.07,0.65c-3.79,0.15 -7.57,0.17 -11.36,0.07c-3.4,-0.07 -6.79,-0.24 -10.19,-0.51l-0.4,-0.02c0.18,-0.3 0.4,-0.58 0.57,-0.87a12.99791,12.99791 0 0 0 0.79,-1.15c1.4,-2.86 2.89,-5.68 4.13,-8.61c0.46,-1.08 2.29,-5.15 4.35,-9.74l0.35,0.16a75.5222,75.5222 0 0 0 6.97,6.05a59.82866,59.82866 0 0 1 5.9,-5.8l0.67,-0.29c3.2,7.49 6.49,15.07 7.23,16.36c0.57,1.01 1.36,1.88 1.97,2.87z"/>
  <path id="svg_7" fill="#8195d2" d="m541.91101,82.78011l-0.67,0.29a59.82866,59.82866 0 0 0 -5.9,5.8a75.5222,75.5222 0 0 1 -6.97,-6.05l-0.35,-0.16c3.28,-7.24 7.15,-15.75 7.15,-15.75s3.32,7.88 6.74,15.87z"/>
  <path id="svg_8" fill="#fef0a5" d="m541.26101,180.76011l-0.02,0.44c-3.96,-0.2 -7.91,-0.38 -11.87,-0.49l0.03,-0.95c-0.92,-8.49 -0.15,-17.06 -0.09,-25.6c0.14,-16.8 -2.42,-33.65 -0.55,-50.35l0.01,-0.25c3.79,0.1 7.57,0.08 11.36,-0.07l0.02,0.44q1.41,22.68 0.67,45.41c-0.34,10.48 -1.02,21.04 0.44,31.42z"/>
  <path id="svg_9" fill="#fef0a5" d="m529.40101,179.76011l-0.03,0.95c-4.22,-0.13 -8.44,-0.2 -12.66,-0.18c0.08,-5.6 0.15,-10.85 0.64,-17.88c0.37,-5.29 0.05,-15.35 0.44,-20.57c0.37,-4.95 -0.52,-9.81 -0.42,-14.73c0.13,-6.22 -0.01,-12.45 0.02,-18.68a32.86235,32.86235 0 0 1 0.41,-4.75a2.40067,2.40067 0 0 1 0.38,-0.89l0.4,0.02c3.4,0.27 6.79,0.44 10.19,0.51l-0.01,0.25c-1.87,16.7 0.69,33.55 0.55,50.35c-0.06,8.54 -0.83,17.11 0.09,25.6z"/>
  <path id="svg_16" fill="#eab0e4" d="m1005.89101,117.00011c5.26,9.14 5.13,21.64 -1.79,29.6c-4.75,5.46 -11.96,8.23 -19.11,9.36c-6.18,0.99 -12.46,0.9 -18.72,1.14c-0.98,0.04 -1.96,0.09 -2.94,0.14a13.71873,13.71873 0 0 0 -5.01,0.99a5.038,5.038 0 0 0 -3.03,3.87c-0.17,2.01 1.29,3.81 2.88,5.06c3.63,2.87 8.23,4.15 12.56,5.82c4.33,1.66 8.74,4 10.95,8.08a11.91034,11.91034 0 0 1 -3.89,15.14c-2.59,1.67 -5.73,2.22 -8.79,2.64c-9.75,1.35 -19.89,1.72 -29.26,-1.3c-9.37,-3.03 -17.92,-9.93 -20.85,-19.33c-1.39,-4.49 -1.46,-9.26 -1.89,-13.94c-0.63,-6.89 -2.05,-13.79 -1.33,-20.67c1.49,-14.09 11.71,-29.79 23.59,-37.27a54.40014,54.40014 0 0 1 41.38,-6.93c10.24,2.51 20,8.45 25.25,17.6zm-38.34,5.43a8.19577,8.19577 0 0 0 -0.17,-2.16a8.06046,8.06046 0 0 0 -0.99,-2.1a14.25692,14.25692 0 0 0 -2.36,-3.28a5.01876,5.01876 0 0 0 -3.63,-1.55l-0.86,-0.16a11.394,11.394 0 0 0 -6.79,2.52a5.27516,5.27516 0 0 0 -2.17,3.9a12.34389,12.34389 0 0 0 1.66,7.84a7.11912,7.11912 0 0 0 1.82,2.15a6.33824,6.33824 0 0 0 4.64,0.95a18.83487,18.83487 0 0 0 4.59,-1.5a7.77745,7.77745 0 0 0 2.91,-1.79c1.14,-1.27 1.31,-3.12 1.35,-4.82zm-20.6,54.14a6.96344,6.96344 0 0 0 -0.15,-1.88a7.04687,7.04687 0 0 0 -0.86,-1.82a12.43223,12.43223 0 0 0 -2.05,-2.86a4.36793,4.36793 0 0 0 -3.16,-1.35l-0.75,-0.13a9.932,9.932 0 0 0 -5.91,2.18a5.56077,5.56077 0 0 0 -1.19,1.28a5.24851,5.24851 0 0 0 -0.69,2.12a10.68072,10.68072 0 0 0 1.44,6.82a6.13184,6.13184 0 0 0 1.59,1.88a5.50164,5.50164 0 0 0 4.03,0.82a16.44258,16.44258 0 0 0 4,-1.31a6.788,6.788 0 0 0 2.53,-1.55a6.47579,6.47579 0 0 0 1.17,-4.2zm-0.01,-30.59a7.79153,7.79153 0 0 0 -0.16,-2.16a8.06046,8.06046 0 0 0 -0.99,-2.1a14.47521,14.47521 0 0 0 -2.36,-3.28a5.01876,5.01876 0 0 0 -3.63,-1.55l-0.86,-0.16a11.394,11.394 0 0 0 -6.79,2.52a6.17808,6.17808 0 0 0 -1.37,1.47a6.06811,6.06811 0 0 0 -0.8,2.43a12.34389,12.34389 0 0 0 1.66,7.84a7.00092,7.00092 0 0 0 1.82,2.15a6.33824,6.33824 0 0 0 4.64,0.95a18.83487,18.83487 0 0 0 4.59,-1.5a7.885,7.885 0 0 0 2.91,-1.78c1.14,-1.28 1.3,-3.13 1.34,-4.83z"/>
  <path id="svg_17" fill="#fff" d="m967.38101,120.27011a8.19577,8.19577 0 0 1 0.17,2.16c-0.04,1.7 -0.21,3.55 -1.35,4.82a7.77745,7.77745 0 0 1 -2.91,1.79a18.83487,18.83487 0 0 1 -4.59,1.5a6.33824,6.33824 0 0 1 -4.64,-0.95a7.11912,7.11912 0 0 1 -1.82,-2.15a12.34389,12.34389 0 0 1 -1.66,-7.84a5.27516,5.27516 0 0 1 2.17,-3.9a11.394,11.394 0 0 1 6.79,-2.52l0.86,0.16a5.01876,5.01876 0 0 1 3.63,1.55a14.25692,14.25692 0 0 1 2.36,3.28a8.06046,8.06046 0 0 1 0.99,2.1z"/>
  <path id="svg_18" fill="#fff" d="m946.80101,174.69011a6.96344,6.96344 0 0 1 0.15,1.88a6.47579,6.47579 0 0 1 -1.17,4.2a6.788,6.788 0 0 1 -2.53,1.55a16.44258,16.44258 0 0 1 -4,1.31a5.50164,5.50164 0 0 1 -4.03,-0.82a6.13184,6.13184 0 0 1 -1.59,-1.88a10.68072,10.68072 0 0 1 -1.44,-6.82a5.24851,5.24851 0 0 1 0.69,-2.12a5.56077,5.56077 0 0 1 1.19,-1.28a9.932,9.932 0 0 1 5.91,-2.18l0.75,0.13a4.36793,4.36793 0 0 1 3.16,1.35a12.43223,12.43223 0 0 1 2.05,2.86a7.04687,7.04687 0 0 1 0.86,1.82z"/>
  <path id="svg_19" fill="#fff" d="m946.78101,143.82011a7.79153,7.79153 0 0 1 0.16,2.16c-0.04,1.7 -0.2,3.55 -1.34,4.83a7.885,7.885 0 0 1 -2.91,1.78a18.83487,18.83487 0 0 1 -4.59,1.5a6.33824,6.33824 0 0 1 -4.64,-0.95a7.00092,7.00092 0 0 1 -1.82,-2.15a12.34389,12.34389 0 0 1 -1.66,-7.84a6.06811,6.06811 0 0 1 0.8,-2.43a6.17808,6.17808 0 0 1 1.37,-1.47a11.394,11.394 0 0 1 6.79,-2.52l0.86,0.16a5.01876,5.01876 0 0 1 3.63,1.55a14.47521,14.47521 0 0 1 2.36,3.28a8.06046,8.06046 0 0 1 0.99,2.1z"/>
  <path id="svg_20" fill="#fef0a5" d="m889.19101,173.91a109.90458,109.90458 0 0 1 0.22,22.43a3.32026,3.32026 0 0 1 -0.83,2.3a3.36358,3.36358 0 0 1 -2.23,0.57q-43.92,0.765 -87.83,1.53a2.26856,2.26856 0 0 1 -1.74,-0.46a2.2434,2.2434 0 0 1 -0.42,-1.48c-1.78,-45.72 -3.55,-91.51 -1.49,-137.22c0.19,-4.26 -0.08,-11.92 4.69,-13.63c5.97,-2.15 14.6,-1.17 20.73,-0.24c1.31,0.2 2.76,0.53 3.49,1.64a4.87888,4.87888 0 0 1 0.56,2.51c1.7,40.04 -4.38,80.12 -2.46,120.14l0.11,0q31.395,-1.5 62.84,-1.54c1.29,0 2.77,0.08 3.6,1.07a4.45107,4.45107 0 0 1 0.76,2.38z"/>
  <path id="svg_21" fill="#eab0e4" d="m764.85101,156.35011c2.43,6.09 4.29,12.39 3.8,19.1a58.19762,58.19762 0 0 1 -0.77,8.06c-0.82,3.79 -2.06,7.49 -3.19,11.21a8.986,8.986 0 0 1 -1.13,1.82a4.93874,4.93874 0 0 0 -0.7,1.37c-0.48,2.34 -1.1,2.99 -3.47,3.13c-2.3,0.14 -4.61,0.22 -6.91,0.23c-4.79,0.01 -9.57,-0.01 -14.36,-0.1c-6.75,-0.13 -13.5,-0.26 -20.24,-0.56c-3.97,-0.17 -7.91,0.31 -11.87,0.17c-3.88,-0.13 -7.77,-0.24 -11.65,-0.42a4.30022,4.30022 0 0 1 -1.56,-0.58c-1.39,-0.7 -1.59,-1.49 -0.94,-2.91a8.75334,8.75334 0 0 0 0.77,-2.42c0.51,-3.62 1.04,-7.24 1.35,-10.89c0.21,-2.43 0.05,-4.89 0.08,-7.33c0.02,-1.92 0.07,-3.83 0.12,-5.75a92.78065,92.78065 0 0 0 0.24,-10.27c-0.59,-7.18 -0.4,-14.36 -0.48,-21.54c-0.04,-3.09 0.28,-6.18 0.35,-9.27c0.11,-4.67 0.19,-9.35 0.2,-14.03c0.01,-2.2 -0.2,-4.39 -0.24,-6.58c-0.03,-1.56 0.14,-3.13 0.1,-4.7c-0.04,-1.49 -0.33,-2.98 -0.34,-4.48c-0.05,-4.98 0.21,-9.97 -0.08,-14.93c-0.31,-5.2 0.42,-10.34 0.62,-15.52c0.03,-0.89 0.09,-1.79 0.05,-2.67c0,-0.05 -0.01,-0.11 -0.01,-0.16l0.42,-0.03c7.52,-0.19 16.62,-0.09 24.14,-0.29c0.32,4.51 -0.49,10.39 -0.64,14.89c-0.21,5.34 -0.19,10.69 -0.33,16.03c-0.09,3.51 -0.39,7 -0.41,10.5c-0.03,5.34 0.11,10.68 0.15,16.03c0.02,2.23 -0.05,4.47 -0.05,6.7c0,5.1 0.02,10.2 0.01,15.3c-0.01,1.59 -0.15,3.18 -0.15,4.77a11.12344,11.12344 0 0 0 0.42,2.03a9.82237,9.82237 0 0 0 2.58,-2.38a25.25839,25.25839 0 0 1 8.73,-6.58c4.33,-2.18 9,-2.46 13.73,-2.23c1.9,0.09 3.81,0.27 5.7,0.55c3.29,0.48 5.86,2.47 8.27,4.5a26.2953,26.2953 0 0 1 7.69,10.23zm-19.08,24.18c2.49,-3.64 1.15,-8.82 -1.01,-12.28a5.8841,5.8841 0 0 0 -3.69,-2.82c-1.74,-0.32 -3.11,0.59 -4.43,1.6a42.45451,42.45451 0 0 0 -11.82,14.23l0.47,0.93a29.68207,29.68207 0 0 0 4.03,1.55c3.96,0.89 8.87,1.05 12.71,-0.42a7.91327,7.91327 0 0 0 3.74,-2.79z"/>
  <path id="svg_22" fill="#fef0a5" d="m716.97101,28.21011c2.25,4.93 3.68,10.06 2.78,15.54a19.3252,19.3252 0 0 1 -2.18,6.2l-0.35,-0.18a2.94743,2.94743 0 0 1 -3.01,-1.6a11.05622,11.05622 0 0 1 -1.03,-3.5a26.255,26.255 0 0 0 -0.75,-2.9a5.24549,5.24549 0 0 0 -1.18,-2.19a2.04753,2.04753 0 0 0 -2.3,-0.49a2.25975,2.25975 0 0 0 -0.87,0.94a21.73712,21.73712 0 0 0 -0.93,2.48a2.98732,2.98732 0 0 1 -1.75,1.87c-1.14,0.33 -2.28,-0.46 -3.14,-1.28a8.12629,8.12629 0 0 1 -2.31,-3.32c-0.68,-2.12 0.07,-4.46 -0.42,-6.64c-0.14,-0.62 -0.58,-1.35 -1.22,-1.24c-0.49,0.08 -0.74,0.63 -1.05,1.03a2.26706,2.26706 0 0 1 -2.47,0.67a3.11139,3.11139 0 0 1 -0.99,-0.61a4.0422,4.0422 0 0 1 -0.38,-1a4.11912,4.11912 0 0 1 0.27,-1.37c0.33,-0.69 0.66,-1.36 1.01,-2.02c0.05,-0.1 0.1,-0.19 0.15,-0.29a48.52436,48.52436 0 0 1 11.44,-14.32c0.92,-0.79 1.36,-2.12 2.16,-3.09c0.56,-0.68 0.94,-1.81 2.22,-1.46c1.14,0.31 1.75,1.14 1.83,2.76c0.06,1.19 -0.13,2.41 0.02,3.58a24.03447,24.03447 0 0 0 1.04,5.58c0.91,2.37 2.35,4.53 3.41,6.85z"/>
  <path id="svg_23" fill="#8195d2" d="m714.94101,58.13011c1.49,2.86 3.99,4.69 4.21,7.88c-7.52,0.2 -16.62,0.1 -24.14,0.29l-0.42,0.03a3.71522,3.71522 0 0 1 0.11,-1.93c1.23,-2.67 2.6,-5.27 3.92,-7.9c0.34,-0.67 0.67,-1.34 1.1,-2.21l0.31,0.15q6.555,0.3 13.11,0.59l1.15,0.34a3.98757,3.98757 0 0 0 0.65,2.76z"/>
  <path id="svg_24" fill="#fff" d="m717.22101,49.77011l0.35,0.18a29.75823,29.75823 0 0 1 -2.39,3.69a4.326,4.326 0 0 0 -0.89,1.73l-1.15,-0.34q-6.555,-0.3 -13.11,-0.59l-0.31,-0.15c0.08,-0.14 0.15,-0.28 0.22,-0.43c-1.01,-1.11 -2.02,-2.23 -3.05,-3.34a18.123,18.123 0 0 1 -4.96,-12.32a16.28155,16.28155 0 0 1 1.57,-7.17c0.06,-0.14 0.13,-0.27 0.19,-0.41a4.11912,4.11912 0 0 0 -0.27,1.37a4.0422,4.0422 0 0 0 0.38,1a3.11139,3.11139 0 0 0 0.99,0.61a2.26706,2.26706 0 0 0 2.47,-0.67c0.31,-0.4 0.56,-0.95 1.05,-1.03c0.64,-0.11 1.08,0.62 1.22,1.24c0.49,2.18 -0.26,4.52 0.42,6.64a8.12629,8.12629 0 0 0 2.31,3.32c0.86,0.82 2,1.61 3.14,1.28a2.98732,2.98732 0 0 0 1.75,-1.87a21.73712,21.73712 0 0 1 0.93,-2.48a2.25975,2.25975 0 0 1 0.87,-0.94a2.04753,2.04753 0 0 1 2.3,0.49a5.24549,5.24549 0 0 1 1.18,2.19a26.255,26.255 0 0 1 0.75,2.9a11.05622,11.05622 0 0 0 1.03,3.5a2.94743,2.94743 0 0 0 3.01,1.6z"/>
  <path id="svg_25" fill="#badeb8" d="m670.06101,163.85a50.4562,50.4562 0 0 1 -4.27,33.23a6.80852,6.80852 0 0 1 -2.72,3.25a7.44144,7.44144 0 0 1 -3.32,0.48l-60.9,-0.78c-1.44,-0.02 -3.12,-0.16 -3.89,-1.38a4.47116,4.47116 0 0 1 -0.2,-3.23c1.81,-9.81 1.97,-19.84 2.06,-29.81q0.345,-37.05 -0.42,-74.1c-0.2,-9.52 -0.39,-19.36 1.96,-28.48l0.23,0.06c7.52,-0.2 14.65,0.2 22.17,0l0.24,-0.06c1.48,5.1 0.84,10.9 0.53,16.38q-2.055,36.09 -0.73,72.27c0.09,-0.1 0.18,-0.21 0.27,-0.31a31.90366,31.90366 0 0 1 18.22,-10.74a25.73727,25.73727 0 0 1 20.68,5.06c5.46,4.47 8.6,11.26 10.09,18.16zm-21.31,13.76c2.49,-3.64 1.15,-8.82 -1.01,-12.28a5.8841,5.8841 0 0 0 -3.69,-2.82c-1.75,-0.32 -3.12,0.59 -4.43,1.6a42.33764,42.33764 0 0 0 -11.82,14.23l0.47,0.93a29.68207,29.68207 0 0 0 4.03,1.55c3.96,0.89 8.87,1.05 12.71,-0.42a7.91327,7.91327 0 0 0 3.74,-2.79z"/>
  <path id="svg_26" fill="#eab0e4" d="m600.25101,23.28a56.36185,56.36185 0 0 1 3.76,-5.17c2.17,-2.67 5.08,-7.91 8.54,-8.78c2.95,-0.74 2.55,3.41 2.49,5.25c-0.24,7.13 4.91,12.48 6.85,18.94a21.68505,21.68505 0 0 1 -1.77,15.85l-0.51,-0.26a3.17181,3.17181 0 0 1 -2.86,-2.51a15.84232,15.84232 0 0 1 -0.22,-4.08a5.21375,5.21375 0 0 0 -1.27,-3.78a0.81647,0.81647 0 0 0 -0.49,-0.26c-0.35,-0.03 -0.61,0.32 -0.77,0.63c-0.59,1.15 -0.88,2.45 -1.53,3.58a3.43994,3.43994 0 0 1 -3.1,1.98a3.66965,3.66965 0 0 1 -1.92,-0.99a6.46481,6.46481 0 0 1 -2.08,-3a10.01651,10.01651 0 0 1 -0.24,-3.14c0.11,-3.31 0.22,-6.61 0.33,-9.92c0.01,-0.45 -0.31,-2.88 -1.22,-1.87c-0.33,0.38 -0.43,0.94 -0.77,1.35c-0.83,1.02 -3.41,2.46 -4.58,1.23a1.211,1.211 0 0 1 -0.29,-0.73a5.69663,5.69663 0 0 1 0.81,-2.67a11.63686,11.63686 0 0 1 0.84,-1.65z"/>
  <path id="svg_27" fill="#8195d2" d="m621.00101,63.03l-0.24,0.06c-7.52,0.2 -14.65,-0.2 -22.17,0l-0.23,-0.06a44.444,44.444 0 0 1 2.88,-8a4.37526,4.37526 0 0 0 0.53,-1.56c4.37,0.19 10.99,0.33 15.36,0.53l0.5,0a8.66387,8.66387 0 0 0 1.21,4.37a16.16382,16.16382 0 0 1 2.16,4.66z"/>
  <path id="svg_28" fill="#fff" d="m619.61101,49.11l0.51,0.26a20.22979,20.22979 0 0 1 -1.97,3.14c-0.59,0.78 -0.45,0.51 -0.52,1.49l-0.5,0c-4.37,-0.2 -10.99,-0.34 -15.36,-0.53a1.31291,1.31291 0 0 0 0.01,-0.28c-0.07,-1.06 -1,-1.81 -1.78,-2.52c-6.56,-5.99 -6.14,-14.61 -2.66,-22.14a43.4361,43.4361 0 0 1 2.91,-5.25a11.63686,11.63686 0 0 0 -0.84,1.65a5.69663,5.69663 0 0 0 -0.81,2.67a1.211,1.211 0 0 0 0.29,0.73c1.17,1.23 3.75,-0.21 4.58,-1.23c0.34,-0.41 0.44,-0.97 0.77,-1.35c0.91,-1.01 1.23,1.42 1.22,1.87c-0.11,3.31 -0.22,6.61 -0.33,9.92a10.01651,10.01651 0 0 0 0.24,3.14a6.46481,6.46481 0 0 0 2.08,3a3.66965,3.66965 0 0 0 1.92,0.99a3.43994,3.43994 0 0 0 3.1,-1.98c0.65,-1.13 0.94,-2.43 1.53,-3.58c0.16,-0.31 0.42,-0.66 0.77,-0.63a0.81647,0.81647 0 0 1 0.49,0.26a5.21375,5.21375 0 0 1 1.27,3.78a15.84232,15.84232 0 0 0 0.22,4.08a3.17181,3.17181 0 0 0 2.86,2.51z"/>
  <path id="svg_29" fill="#fef0a5" d="m282.42101,124.79011c4.37,14.39 1.26,30.86 -6.11,43.71c-10.71,18.68 -31.11,31.85 -52.64,32.42c-0.99,0.02 -1.98,0.02 -2.98,-0.01c-20.52,-0.62 -42.16,-13.74 -50.36,-32.58a6.88346,6.88346 0 0 1 -0.36,-1.19l0.79,-0.09a9.10368,9.10368 0 0 0 3.24,-1.46q2.55,-1.56 5.21,-2.93l0.28,0.54c14.37,28.69 54.89,32.04 76.78,10.01c13.26,-13.34 18.18,-34.94 8.86,-51.88c-9.69,-17.61 -32.63,-24.95 -50.79,-30c-20.47,-5.69 -47.73,-22.17 -35.43,-47.49c11.82,-24.32 49.03,-33.14 69.97,-17.72c7.13,5.25 15.49,12.94 18.28,21.97l0.05,0.21c-0.26,0.06 -0.52,0.11 -0.78,0.17c-1.16,0.24 -2.32,0.49 -3.45,0.84c-0.85,0.26 -1.69,0.59 -2.52,0.91q-2.265,0.87 -4.54,1.75l-0.62,0.3a32.96472,32.96472 0 0 0 -11.92,-13.46a40.6708,40.6708 0 0 0 -24.62,-5.94c-5.86,0.4 -11.77,1.97 -16.52,5.41c-4.76,3.45 -8.21,8.96 -8.29,14.83c-0.11,7.25 4.85,13.79 10.94,17.74c6.09,3.94 13.24,5.82 20.17,7.96c23.7,7.3 49.6,20.44 57.36,45.98z"/>
  <path id="svg_30" fill="#eab0e4" d="m281.94101,54.32011c0.44,2.05 0.72,4.36 -0.44,6.12c-1,1.53 -2.84,2.25 -4.58,2.82a89.87977,89.87977 0 0 1 -12.31,3.13a6.68327,6.68327 0 0 1 -3.44,-0.02c-2.57,-0.93 -3.07,-4.24 -3.56,-6.93a28.88719,28.88719 0 0 0 -2.31,-7.17l0.62,-0.3q2.28,-0.885 4.54,-1.75c0.83,-0.32 1.67,-0.65 2.52,-0.91c1.13,-0.35 2.29,-0.6 3.45,-0.84c0.26,-0.06 0.52,-0.11 0.78,-0.17q5.715,-1.215 11.41,-2.43l0.61,-0.25a50.15617,50.15617 0 0 1 2.71,8.7z"/>
  <path id="svg_31" fill="#fef0a5" d="m279.23101,45.62011l-0.61,0.25q-5.7,1.215 -11.41,2.43l-0.05,-0.21c-2.79,-9.03 -11.15,-16.72 -18.28,-21.97c-20.94,-15.42 -58.15,-6.6 -69.97,17.72c-12.3,25.32 14.96,41.8 35.43,47.49c18.16,5.05 41.1,12.39 50.79,30c9.32,16.94 4.4,38.54 -8.86,51.88c-21.89,22.03 -62.41,18.68 -76.78,-10.01l-0.28,-0.54a79.79286,79.79286 0 0 1 7.83,-3.54l0.78,-0.64c1.47,1.67 2.73,3.08 3.62,4.07c6.2,6.82 15.09,12.56 24.15,14.27c9.43,1.77 19.27,-1.56 27.13,-7.07c9.94,-6.98 17.64,-19.05 14.97,-30.9c-1.76,-7.81 -7.72,-14.12 -14.57,-18.26c-6.86,-4.14 -14.63,-6.43 -22.23,-8.94c-12.39,-4.09 -24.7,-8.94 -35.25,-16.61c-10.54,-7.68 -19.26,-18.5 -22.21,-31.2c-9.13,-39.22 41.11,-60.34 72.72,-53.6c18.92,4.04 35.8,17.64 43.08,35.38z"/>
  <path id="svg_32" fill="#fff" d="m187.82101,158.48011l-0.78,0.64a79.79286,79.79286 0 0 0 -7.83,3.54q-2.655,1.365 -5.21,2.93a9.10368,9.10368 0 0 1 -3.24,1.46l-0.79,0.09c-0.72,-3.3 -1.02,-10.69 -1.13,-17.37c2.05,0.69 4.08,1.45 6.09,2.25l1.89,-5.67l0.24,-0.21c3.57,4.12 7.64,8.8 10.76,12.34z"/>
  <path id="svg_33" fill="#8195d2" d="m177.06101,146.14011l-0.24,0.21l-1.89,5.67c-2.01,-0.8 -4.04,-1.56 -6.09,-2.25c-0.12,-6.81 -0.04,-12.88 -0.04,-13.17c0,0 3.73,4.32 8.26,9.54z"/>
  <path id="svg_34" d="m220.69597,199.785a59.10462,59.10462 0 0 1 -41.78614,-20.04725a47.60221,47.60221 0 0 1 -6.54639,-9.71527a15.27214,15.27214 0 0 1 -1.66641,-5.4546a158.97969,158.97969 0 0 1 -0.7579,-16.26037c-0.05238,-3.90568 -0.06548,-7.81345 -0.01465,-11.71928l-1.92049,0.79549q7.07958,8.21448 14.20283,16.39134c2.74475,3.14817 5.47936,6.30845 8.28649,9.40144a49.62033,49.62033 0 0 0 17.27208,12.40325a33.20384,33.20384 0 0 0 21.25687,1.79255a43.76566,43.76566 0 0 0 18.90119,-10.39837c4.98936,-4.63953 9.08073,-10.6335 10.69508,-17.31682a24.31753,24.31753 0 0 0 -3.19332,-18.98076c-8.36775,-13.03035 -24.347,-16.66758 -38.0333,-21.39409c-14.44876,-4.98981 -28.91169,-11.48061 -39.70536,-22.62275c-8.77778,-9.06117 -14.8988,-21.23379 -14.16664,-34.08727c0.54645,-9.59332 5.32327,-18.20564 12.21618,-24.73224c7.249,-6.86376 16.46515,-11.52213 25.96808,-14.38454a73.17587,73.17587 0 0 1 29.48692,-2.90039a59.53091,59.53091 0 0 1 32.58487,15.20217a58.10911,58.10911 0 0 1 11.84192,14.90644a51.74628,51.74628 0 0 1 3.82433,8.74471q0.76054,2.30631 1.29759,4.67862c0.37615,1.66267 0.81069,3.60174 0.09028,5.2325c-0.73471,1.66312 -2.60537,2.32454 -4.20662,2.85919c-2.00967,0.671 -4.04852,1.25952 -6.10213,1.78009q-2.967,0.75211 -5.98161,1.29989c-1.84852,0.33338 -3.55747,0.38757 -4.56112,-1.41416a13.168,13.168 0 0 1 -1.16766,-4.07739a32.39522,32.39522 0 0 0 -1.23655,-4.89162a32.06285,32.06285 0 0 0 -4.7611,-8.833c-8.955,-11.78279 -24.70478,-16.28628 -38.94688,-13.68989c-7.01346,1.27858 -13.73792,4.69682 -17.78543,10.73a18.22421,18.22421 0 0 0 -1.10151,18.73364c6.79688,13.25389 23.11673,15.631 35.824,20.05863c11.75147,4.09462 23.35438,9.55668 32.94567,17.6039c9.78246,8.2076 17.11812,19.27958 19.03568,32.06726c2.17739,14.52041 -2.362,29.75569 -10.78824,41.59921a64.65,64.65 0 0 1 -31.57766,23.60151a56.93949,56.93949 0 0 1 -19.723,3.03824a1.12569,1.12569 0 0 0 0,2.25a62.20982,62.20982 0 0 0 37.96392,-12.30234a65.96885,65.96885 0 0 0 23.91436,-32.645c4.45282,-13.72829 3.98874,-28.70633 -2.76111,-41.60066c-5.77184,-11.026 -15.402,-19.45868 -26.0214,-25.68114a119.77943,119.77943 0 0 0 -16.9832,-8.105c-6.28706,-2.45778 -12.7596,-4.26143 -19.167,-6.35911c-7.05661,-2.31021 -14.24083,-5.464 -18.80529,-11.59254a17.9152,17.9152 0 0 1 -3.73894,-9.5013a16.23392,16.23392 0 0 1 2.71575,-9.709c4.10881,-6.38269 11.55162,-9.48364 18.85145,-10.34953a40.71516,40.71516 0 0 1 22.79936,3.68985a32.36341,32.36341 0 0 1 14.73118,14.68183c1.47627,3.042 2.01706,6.17035 2.76889,9.42435c0.6614,2.86258 2.20127,5.62386 5.474,5.74346a23.72491,23.72491 0 0 0 5.702,-0.89895q3.10644,-0.67509 6.1595,-1.57038c3.0883,-0.90546 7.1846,-1.78461 8.60186,-5.06787c1.29557,-3.00135 0.10608,-6.6959 -0.75741,-9.66631a54.12542,54.12542 0 0 0 -3.50419,-8.93569a61.89337,61.89337 0 0 0 -58.41438,-33.62559a79.76087,79.76087 0 0 0 -29.76211,7.38662c-8.84929,4.14136 -17.09082,10.16482 -22.6603,18.29283a37.81085,37.81085 0 0 0 -5.98171,27.91346c2.30947,13.59047 11.0968,25.16113 21.84394,33.39453c12.65307,9.69356 27.81378,14.72283 42.74836,19.69116c7.36367,2.4497 14.8862,5.24829 20.90332,10.30391c5.30334,4.45591 9.42929,10.59538 9.76209,17.686c0.68465,14.58722 -12.3911,26.98961 -25.20646,31.52856a31.35538,31.35538 0 0 1 -22.03237,-0.15642a46.96586,46.96586 0 0 1 -17.80633,-12.47517c-6.11726,-6.7471 -12.02665,-13.68953 -17.9835,-20.57781q-2.22938,-2.578 -4.45518,-5.15905a1.13631,1.13631 0 0 0 -1.9205,0.7955a239.23107,239.23107 0 0 0 0.68663,27.18772a17.63912,17.63912 0 0 0 1.14261,5.45057a47.9645,47.9645 0 0 0 6.20279,10.1505a59.20608,59.20608 0 0 0 18.77585,15.46349a60.48245,60.48245 0 0 0 26.21357,7.19451c1.44822,0.04891 1.4464,-2.20116 0,-2.25z"/>
  <path id="svg_35" d="m256.22486,53.05192a70.58778,70.58778 0 0 1 10.72631,-3.54792q5.98515,-1.27373 11.97064,-2.54594c1.41553,-0.30106 0.8165,-2.4705 -0.59814,-2.16963q-5.98531,1.273 -11.97064,2.54594a70.5826,70.5826 0 0 0 -10.72631,3.54791c-1.33678,0.51592 -0.756,2.69225 0.59814,2.16963l0,0.00001z"/>
  <path id="svg_36" d="m169.99115,167.92577a1.12567,1.12567 0 0 0 0,-2.25a1.12567,1.12567 0 0 0 0,2.25z"/>
  <path id="svg_37" d="m171.06039,168.131a11.40108,11.40108 0 0 0 3.76376,-1.73082q2.01228,-1.21965 4.0915,-2.32361a80.85478,80.85478 0 0 1 8.42078,-3.86806c1.33331,-0.52205 0.753,-2.69868 -0.59814,-2.16963a86.218,86.218 0 0 0 -8.42084,3.81224q-2.01928,1.05246 -3.97806,2.21576a12.20273,12.20273 0 0 1 -3.87714,1.89449c-1.42205,0.26185 -0.81969,2.4307 0.59814,2.16963z"/>
  <path id="svg_38" d="m168.4007,150.80227q3.14625,1.068 6.23169,2.303a1.14062,1.14062 0 0 0 1.38388,-0.78574l1.88622,-5.66853a1.12528,1.12528 0 1 0 -2.16962,-0.59814l-1.88622,5.66853l1.38388,-0.78575q-3.08463,-1.23472 -6.23169,-2.303a1.12529,1.12529 0 0 0 -0.59814,2.16963z"/>
  <path id="svg_39" d="m268.24185,47.79429c-2.31045,-7.29146 -7.55968,-13.28268 -13.23792,-18.22157c-4.74209,-4.12464 -9.797,-7.64541 -15.76893,-9.72188c-11.11682,-3.86543 -23.718,-3.13048 -34.69281,0.85672c-11.05043,4.01469 -21.16359,11.59885 -26.467,22.29c-2.75184,5.54739 -4.09412,11.74071 -2.89819,17.88526a29.53357,29.53357 0 0 0 7.94638,14.42947c8.19744,8.621 19.76067,13.98325 31.07142,17.14867c12.96929,3.62962 26.29378,7.71435 37.35529,15.66304a41.99254,41.99254 0 0 1 13.31009,15.11211a39.36929,39.36929 0 0 1 3.79812,20.85269a46.24038,46.24038 0 0 1 -20.341,34.2034a50.24835,50.24835 0 0 1 -33.40452,7.78957a44.73382,44.73382 0 0 1 -29.63591,-15.904a42.59937,42.59937 0 0 1 -4.81858,-7.54677c-0.65354,-1.29245 -2.59531,-0.15478 -1.9428,1.13562a45.14126,45.14126 0 0 0 25.86131,22.22081a52.45378,52.45378 0 0 0 33.97967,-0.26674a48.91046,48.91046 0 0 0 27.8,-24.52822c6.22874,-12.7838 6.83188,-28.32465 -0.30895,-40.88287c-6.75546,-11.88048 -19.27727,-18.93528 -31.62386,-23.75866c-11.77194,-4.59888 -24.41178,-6.71064 -35.63966,-12.67281c-9.77418,-5.19024 -20.33746,-13.58874 -21.50911,-25.42976c-1.20863,-12.21467 7.39781,-23.55607 17.06939,-30.01616a53.35942,53.35942 0 0 1 34.01471,-8.65092a41.28563,41.28563 0 0 1 16.35449,4.86822a51.07945,51.07945 0 0 1 7.85786,5.62517a59.34641,59.34641 0 0 1 8.18368,8.20479a30.88116,30.88116 0 0 1 5.5172,9.913c0.4358,1.37534 2.60878,0.78776 2.16963,-0.59814l0,-0.00004z"/>
  <path id="svg_40" d="m169.99115,167.92577a1.12567,1.12567 0 0 0 0,-2.25a1.12567,1.12567 0 0 0 0,2.25z"/>
  <path id="svg_42" d="m518.47785,162.65184c0.462,-7.0063 0.06429,-14.04325 0.47174,-21.05445c0.28561,-4.91455 -0.52474,-9.81739 -0.44224,-14.73424c0.08526,-5.08112 0.01311,-10.16232 0.00535,-15.2437c-0.00175,-1.14148 -0.01776,-2.28545 0.012,-3.42663a15.94715,15.94715 0 0 1 0.36516,-3.97506a11.71433,11.71433 0 0 1 1.53864,-2.48819c0.64149,-1.05934 1.13011,-2.2481 1.68117,-3.35729c1.18724,-2.3897 2.26064,-4.82331 3.3443,-7.25973c1.95119,-4.38689 3.93817,-8.758 5.91973,-13.13123q2.38125,-5.25535 4.76934,-10.5076l-2.05622,-0.26874q4.02926,9.56793 8.12373,19.1084c1.59852,3.71947 3.19014,7.44423 4.869,11.1284a19.75187,19.75187 0 0 0 1.93171,3.53148a10.8889,10.8889 0 0 1 1.5532,2.44242a9.75736,9.75736 0 0 1 0.46917,3.14122a63.15585,63.15585 0 0 1 -0.10432,6.38916c-0.31416,4.53736 -0.24531,9.09861 -0.28148,13.64452c-0.036,4.51932 0.06338,9.00543 0.32219,13.51721c0.25986,4.53013 0.24863,9.07042 0.51366,13.60244c0.26749,4.574 0.47451,9.07083 0.35914,13.65457c-0.114,4.53033 -0.1928,9.06886 -0.19624,13.60067c-0.00349,4.6032 0.46031,9.28327 0.17521,13.87745c-0.1046,1.68553 -0.32965,3.94722 -1.81495,5.03942c-1.36927,1.00688 -3.20254,0.5549 -4.75144,0.401c-4.50483,-0.44757 -9.02239,-0.83647 -13.54274,-1.08834c-3.87972,-0.21616 -7.82735,-0.4627 -11.7113,-0.414a4.15506,4.15506 0 0 1 -1.92283,-0.1932c-0.95989,-0.51744 -0.672,-2.02033 -0.63164,-2.90138q0.14265,-3.11342 0.23,-6.229c0.19627,-6.979 0.15282,-13.96339 0.46628,-20.93914q0.1319,-2.93523 0.33477,-5.86646c0.09844,-1.44531 -2.152,-1.43923 -2.25,0c-0.50519,7.41788 -0.5679,14.83917 -0.6989,22.26966q-0.053,3.00469 -0.14648,6.00848a53.33654,53.33654 0 0 0 -0.217,6.56428c0.38823,4.10878 4.50152,3.46417 7.52789,3.60405c4.37607,0.20226 8.7468,0.30072 13.11753,0.62244q3.515,0.25872 7.025,0.58088c2.0011,0.18464 4.18589,0.70976 6.18614,0.35957c3.71878,-0.651 4.77843,-4.28568 5.03122,-7.57965c0.17866,-2.328 0.003,-4.712 -0.05077,-7.044c-0.05627,-2.43839 -0.11039,-4.87665 -0.10577,-7.31584c0.00888,-4.68918 0.09121,-9.38483 0.21473,-14.07233c0.12717,-4.82589 -0.20126,-9.576 -0.45937,-14.391c-0.252,-4.70125 -0.26832,-9.40683 -0.55,-14.1065c-0.28344,-4.72853 -0.21458,-9.45652 -0.184,-14.19074c0.01548,-2.39587 0.02753,-4.79183 0.08252,-7.18719c0.05315,-2.31463 0.30355,-4.61954 0.34477,-6.93334a25.85282,25.85282 0 0 0 -0.38411,-6.24263c-0.4691,-1.99549 -1.89266,-3.31791 -2.86351,-5.04915a92.68934,92.68934 0 0 1 -3.821,-8.45524c-3.29521,-7.58075 -6.715,-15.64689 -9.81915,-23.00936q-0.10064,-0.23866 -0.2012,-0.47738c-0.32523,-0.7723 -1.60551,-1.25981 -2.05621,-0.26874c-3.42951,7.54128 -6.86394,15.08082 -10.24523,22.64386c-0.84585,1.89195 -1.64493,3.80718 -2.53246,5.67975a42.53262,42.53262 0 0 1 -3.2315,6.36479a7.92394,7.92394 0 0 0 -1.47081,2.59312a21.18178,21.18178 0 0 0 -0.40587,3.6201c-0.29663,5.041 -0.00084,10.15 -0.01447,15.19873c-0.007,2.58745 -0.11846,5.17994 -0.01481,7.76606c0.09824,2.45134 0.3373,4.8947 0.4317,7.34624c0.1651,4.28776 -0.245,8.615 -0.26928,12.91c-0.023,4.06057 0.04768,8.13691 -0.21964,12.1911c-0.09536,1.44559 2.15502,1.43978 2.24995,0z"/>
  <path id="svg_43" d="m700.73409,53.06522c-2.1734,-2.39052 -4.53113,-4.66046 -5.97894,-7.59021a16.99077,16.99077 0 0 1 -1.66627,-8.58315c0.2212,-3.25259 1.71163,-6.19873 3.275,-8.998a47.96357,47.96357 0 0 1 5.30381,-7.69q1.40161,-1.6488 2.9489,-3.16566a24.89865,24.89865 0 0 0 3.36583,-3.31361a22.11252,22.11252 0 0 1 1.8812,-2.87325c1.26539,-1.33314 1.52647,1.567 1.518,2.24331a23.16312,23.16312 0 0 0 1.37637,9.25122c1.35886,3.23759 3.29463,6.157 4.49,9.47854c2.28936,6.36108 2.25106,12.93055 -1.353,18.79005c-1.42363,2.31455 -3.5523,4.18841 -2.38768,7.08627c1.04579,2.60218 3.45629,4.49685 4.29046,7.17114a12.80286,12.80286 0 0 1 0.29939,3.90115c-0.01675,1.70753 -0.12418,3.41339 -0.24652,5.11612c-0.2261,3.1472 -0.461,6.2833 -0.54749,9.43849c-0.19849,7.24272 -0.35828,14.4784 -0.60588,21.71935c-0.275,8.04143 0.11148,16.11241 0.0557,24.15842c-0.02843,4.10151 0.00535,8.20376 0.00487,12.30535c-0.00023,1.95176 0.02043,3.90436 -0.06007,5.85481a18.02179,18.02179 0 0 0 0.3732,5.19444a1.13281,1.13281 0 0 0 1.65262,0.67234c1.8941,-1.28183 3.10038,-3.1172 4.75721,-4.65153a26.39711,26.39711 0 0 1 5.63379,-3.84177c4.47806,-2.37533 9.323,-2.79386 14.31277,-2.5303a24.21273,24.21273 0 0 1 7.50869,1.11387a20.75569,20.75569 0 0 1 5.74329,3.86129a26.9305,26.9305 0 0 1 7.74572,11.16837a42.64828,42.64828 0 0 1 3.17787,14.77536a72.04112,72.04112 0 0 1 -0.44807,7.80767a44.93821,44.93821 0 0 1 -1.837,7.90951c-0.36824,1.24363 -0.75374,2.482 -1.13669,3.7212a16.4607,16.4607 0 0 1 -0.57106,1.85875a11.9497,11.9497 0 0 1 -1.01692,1.5473a9.91455,9.91455 0 0 0 -1.047,2.58274a1.52636,1.52636 0 0 1 -1.10493,1.21306a13.34,13.34 0 0 1 -3.0226,0.25439q-2.22173,0.10128 -4.44606,0.119c-2.72223,0.01929 -5.44538,0.00607 -8.16758,-0.01146c-5.52072,-0.03557 -11.04147,-0.15678 -16.56046,-0.29612c-5.43644,-0.13725 -10.86795,-0.49271 -16.305,-0.27141c-5.37571,0.2188 -10.749,-0.03958 -16.1218,-0.26533c-0.82119,-0.0345 -2.745,-0.02436 -3.16708,-0.99824c-0.27512,-0.63471 0.78442,-2.26907 0.94528,-2.92759a65.78534,65.78534 0 0 0 1.05935,-7.539c0.65926,-5.38443 0.478,-10.74153 0.62166,-16.15247c0.07135,-2.68739 0.29412,-5.36866 0.35054,-8.05594c0.05652,-2.69188 -0.25176,-5.3732 -0.36416,-8.06077c-0.22852,-5.46429 -0.14647,-10.93549 -0.19627,-16.40287c-0.04867,-5.34423 0.38871,-10.7019 0.47543,-16.04879c0.04313,-2.65905 0.09153,-5.32051 0.07659,-7.98c-0.01452,-2.5855 -0.31,-5.16308 -0.22938,-7.74969c0.03883,-1.24613 0.13035,-2.49242 0.0631,-3.73936c-0.06859,-1.27163 -0.27726,-2.53108 -0.315,-3.80494c-0.07827,-2.64312 0.0306,-5.296 0.05144,-7.93959c0.04272,-5.41866 -0.314,-10.77893 0.06987,-16.19518c0.186,-2.62375 0.40275,-5.24776 0.46737,-7.87829c0.03248,-1.3219 -0.20585,-2.4544 0.33747,-3.69359c0.527,-1.202 1.15025,-2.37037 1.74222,-3.54135q1.55622,-3.07835 3.1037,-6.16078c0.64516,-1.29166 -1.295,-2.43254 -1.94281,-1.13561c-1.13132,2.265 -2.281,4.52046 -3.41744,6.78283c-0.55548,1.10585 -1.11021,2.21424 -1.62554,3.33955a7.93429,7.93429 0 0 0 -0.43895,3.73946c0.0191,5.68987 -0.96076,11.33692 -0.706,17.03521c0.12575,2.81268 0.18229,5.61512 0.15325,8.431c-0.02849,2.76384 -0.21139,5.5783 0.02125,8.33544c0.1082,1.28227 0.27994,2.54907 0.272,3.83868c-0.00918,1.49048 -0.1302,2.97521 -0.092,4.46663c0.0708,2.76637 0.245,5.51285 0.225,8.28264c-0.04146,5.74737 -0.16459,11.48536 -0.45025,17.22544c-0.28268,5.68016 -0.12086,11.43545 -0.006,17.12085c0.05945,2.94393 0.24578,5.87109 0.42716,8.80868a80.13585,80.13585 0 0 1 -0.224,8.55931c-0.25856,5.7187 0.10731,11.458 -0.53267,17.15186a67.36819,67.36819 0 0 1 -1.14649,8.36244c-0.4339,1.77627 -1.88627,3.63767 -0.24443,5.25574c1.8503,1.82352 4.68886,1.52556 7.06193,1.6136c2.834,0.10513 5.67164,0.23663 8.50714,0.28591c2.88554,0.05014 5.76518,-0.19168 8.64946,-0.22312c2.96278,-0.0323 5.93254,0.17783 8.89374,0.26871q8.64347,0.26529 17.29306,0.37663c5.76306,0.06962 11.55592,0.19087 17.31193,-0.15457c1.6548,-0.09932 3.36758,-0.2866 4.30907,-1.83235a14.57262,14.57262 0 0 0 0.82645,-2.36844c0.40866,-1.02351 1.27872,-1.78069 1.68128,-2.81187a79.869,79.869 0 0 0 2.43754,-8.07662a41.04465,41.04465 0 0 0 1.42135,-8.31227a56.19131,56.19131 0 0 0 0.16444,-8.18812a41.21,41.21 0 0 0 -1.42107,-7.66039c-1.34335,-4.789 -3.10572,-9.525 -6.24535,-13.43676c-2.77089,-3.45233 -6.669,-7.01614 -10.91218,-8.493a28.49952,28.49952 0 0 0 -7.73334,-1.0573a39.179,39.179 0 0 0 -7.55218,0.23731a26.69966,26.69966 0 0 0 -13.22208,6.12351c-1.82384,1.52968 -3.09051,3.63365 -5.06513,4.97l1.65262,0.67233a18.13207,18.13207 0 0 1 -0.273,-5.0733c0.07129,-1.95494 0.04059,-3.91524 0.04026,-5.87116c-0.00067,-3.93713 -0.03214,-7.87494 -0.00485,-11.812c0.05251,-7.57408 -0.237,-15.15457 -0.09487,-22.7269c0.0719,-3.83157 0.3641,-7.655 0.44055,-11.48716c0.07433,-3.72578 0.09616,-7.45252 0.19166,-11.1779c0.0888,-3.46351 0.35082,-6.90227 0.59108,-10.35706c0.20839,-2.99654 0.7585,-6.6302 -0.27635,-9.51578c-0.95753,-2.67 -3.35986,-4.51886 -4.312,-7.17471c-0.54654,-1.5245 0.67494,-2.59655 1.483,-3.772a25.6556,25.6556 0 0 0 2.53911,-4.60657c2.68288,-6.395 1.56637,-13.30832 -1.07851,-19.51143c-1.408,-3.30227 -3.716,-6.33661 -4.41081,-9.90084a23.22411,23.22411 0 0 1 -0.47484,-4.979c0.0358,-1.42244 0.15528,-2.98069 -0.64681,-4.23768a3.33611,3.33611 0 0 0 -2.90008,-1.49855c-1.18234,0.076 -1.79051,1.004 -2.42343,1.8768a19.10088,19.10088 0 0 1 -2.45837,3.3315c-1.34424,1.20107 -2.65078,2.43071 -3.87122,3.75923a50.32264,50.32264 0 0 0 -6.26359,8.45725c-1.88435,3.19267 -3.67849,6.61654 -4.11652,10.34525a19.11414,19.11414 0 0 0 1.56903,9.89179c1.52088,3.41555 4.17359,6.00754 6.653,8.7346c0.97619,1.07371 2.56366,-0.52116 1.591,-1.59099z"/>
  <path id="svg_44" d="m621.86865,152.16267c5.03757,-5.769 12.059,-10.04092 19.79583,-10.72509a24.08905,24.08905 0 0 1 20.61461,8.11221c5.09217,6.0155 7.27371,14.27044 7.7013,22.00144a49.39077,49.39077 0 0 1 -4.77512,24.18363c-0.7974,1.64229 -1.63376,3.54741 -3.6331,3.88151c-2.25065,0.37611 -4.78452,0.02732 -7.0607,-0.00165l-14.22767,-0.18108l-28.45535,-0.36217c-4.53634,-0.05773 -9.12884,0.08864 -13.65686,-0.18626a2.90731,2.90731 0 0 1 -2.24306,-0.80408c-0.56588,-0.8031 -0.10124,-2.21646 0.05022,-3.077c0.39337,-2.23476 0.70535,-4.48445 0.95646,-6.73952c1.01149,-9.08368 0.98534,-18.25007 1.05259,-27.37765q0.20889,-28.34967 -0.23374,-56.69913c-0.13884,-8.892 -0.60319,-17.82648 -0.21949,-26.71631a71.1834,71.1834 0 0 1 1.54489,-12.615a47.56947,47.56947 0 0 1 1.79063,-6.08045q0.52311,-1.40979 1.15323,-2.77484a6.64512,6.64512 0 0 0 0.87427,-2.62359c0.02806,-1.83336 -1.5098,-2.88649 -2.67576,-4.05323a14.51453,14.51453 0 0 1 -2.995,-4.309a16.6407,16.6407 0 0 1 -0.85144,-10.0372c1.5261,-7.58575 6.5459,-13.45383 10.98347,-19.52266a22.57122,22.57122 0 0 1 3.2518,-3.75168c0.58114,-0.50813 2.32226,-1.9295 3.01209,-1.06781c0.57105,0.71333 0.35638,2.29054 0.327,3.13027a19.34937,19.34937 0 0 0 0.34911,4.79035c0.75815,3.53526 2.5936,6.7142 4.22016,9.90217c1.72635,3.38356 3.04217,6.80121 3.02756,10.65371a21.51218,21.51218 0 0 1 -3.06067,10.90649c-0.72072,1.201 -1.85563,2.18838 -1.95961,3.62833a9.30051,9.30051 0 0 0 0.99055,4.65351a32.01319,32.01319 0 0 1 2.35711,4.88049a23.8615,23.8615 0 0 1 0.90347,5.85326c0.16668,3.95548 -0.24,7.92 -0.45722,11.86623q-1.56184,28.38 -1.02835,56.82366q0.1311,6.97991 0.38866,13.95653c0.033,0.90125 1.25316,1.57818 1.9205,0.7955l0.26763,-0.31389c0.93454,-1.096 -0.6497,-2.695 -1.591,-1.591l-0.26763,0.31389l1.92049,0.79549q-1.09879,-30.02439 0.12513,-60.0717c0.19827,-4.826 0.43046,-9.65173 0.73884,-14.47208a51.20888,51.20888 0 0 0 -0.20472,-12.22895a19.31752,19.31752 0 0 0 -1.8434,-5.5411c-0.86987,-1.67449 -1.97659,-3.11257 -2.00117,-5.09822c-0.01106,-0.89379 0.05394,-0.73986 0.61222,-1.50205a21.36152,21.36152 0 0 0 1.64682,-2.63314a24.14562,24.14562 0 0 0 2.082,-5.427a21.90108,21.90108 0 0 0 -0.1137,-11.48922c-1.09378,-3.65955 -3.1561,-6.91265 -4.76988,-10.34687a21.77722,21.77722 0 0 1 -1.8459,-5.47424a27.1593,27.1593 0 0 1 -0.13779,-4.5789c-0.01563,-2.43054 -0.9374,-5.3074 -3.9627,-4.57136c-3.16784,0.77073 -5.35992,4.02481 -7.14948,6.49937a118.3603,118.3603 0 0 0 -7.00295,9.8765c-3.61806,6.259 -5.99467,14.07765 -3.019,21.07077a16.53187,16.53187 0 0 0 2.8785,4.51329c0.635,0.71428 1.37711,1.30721 2.0355,1.99471c0.9533,0.99546 0.501,1.74894 -0.01013,2.86541a49.15272,49.15272 0 0 0 -3.70886,12.42042c-1.48554,8.9216 -1.12221,18.00126 -0.94624,27.00389q0.58321,29.83686 0.44456,59.682c-0.0457,9.836 0.07186,19.71835 -0.67016,29.53271c-0.18617,2.46234 -0.43109,4.92191 -0.77291,7.36776c-0.28645,2.04967 -1.03486,4.3066 -0.8759,6.383c0.34147,4.46033 6.02128,3.70831 9.13376,3.74793l30.20261,0.3844l14.9765,0.19061l7.48825,0.09531c2.24387,0.02856 4.6948,0.33991 6.91,-0.08825c3.879,-0.74974 5.39325,-5.53465 6.648,-8.74878a51.56707,51.56707 0 0 0 3.101,-12.42409a48.2141,48.2141 0 0 0 -3.15732,-24.60682c-3.17118,-7.43273 -8.87149,-13.36163 -16.71409,-15.743a29.08127,29.08127 0 0 0 -22.80949,2.89825a35.22285,35.22285 0 0 0 -8.96078,7.41014c-0.94867,1.08639 0.63646,2.68412 1.59102,1.59092z"/>
  <path id="svg_45" d="m821.9898,173.12359q24.66873,-1.17327 49.36865,-1.454q5.98664,-0.0669 11.9737,-0.08079c1.40335,-0.00326 3.8394,-0.42636 4.50731,1.18785a9.442,9.442 0 0 1 0.37915,2.59343q0.169,1.70128 0.28481,3.40729a109.9296,109.9296 0 0 1 0.16954,11.71657c-0.07555,1.943 -0.14127,3.91775 -0.38407,5.84838c-0.11511,0.91531 -0.24154,1.56078 -1.25823,1.7141a24.65368,24.65368 0 0 1 -3.17892,0.07233l-48.90465,0.85325l-24.45233,0.42662l-5.98833,0.10447l-2.99416,0.05224a21.83123,21.83123 0 0 1 -3.309,0.05313c-0.97506,-0.13883 -0.72407,-0.97248 -0.75694,-1.81857q-0.05814,-1.49643 -0.11619,-2.99287q-0.11608,-2.99311 -0.2312,-5.98626c-1.25792,-32.753 -2.37319,-65.52931 -1.9321,-98.31133q0.16449,-12.22476 0.63937,-24.44277c0.117,-2.94167 0.16557,-5.90084 0.37594,-8.8379c0.1593,-2.224 0.43549,-4.74184 1.739,-6.62363c1.55054,-2.23839 5.03277,-2.498 7.51119,-2.69907a52.46289,52.46289 0 0 1 9.67722,0.25169c1.51687,0.15857 3.02968,0.35639 4.53765,0.58433a9.349,9.349 0 0 1 2.13693,0.46523a2.2621,2.2621 0 0 1 1.41782,2.27846c0.32116,3.87144 0.26849,7.81427 0.30468,11.69738c0.30175,32.37329 -3.50508,64.63277 -3.09881,97.00776q0.07414,5.90907 0.35067,11.81275a1.14015,1.14015 0 0 0 1.125,1.125l0.10627,-0.00508c1.4415,-0.06888 1.44985,-2.31928 0,-2.25l-0.10627,0.00508l1.125,1.125c-0.80707,-17.06645 -0.18448,-34.15222 0.68163,-51.20335c0.87091,-17.14544 1.97728,-34.2893 2.07628,-51.46254q0.0369,-6.401 -0.13228,-12.801a51.85209,51.85209 0 0 0 -0.27322,-5.94981a4.15167,4.15167 0 0 0 -2.50748,-3.35794a16.83049,16.83049 0 0 0 -4.54212,-0.93153c-1.65979,-0.22474 -3.32341,-0.42072 -4.993,-0.55677a44.05887,44.05887 0 0 0 -10.31225,0.20275c-2.67083,0.41293 -5.33449,1.09632 -6.95245,3.41883c-1.4287,2.05082 -1.83667,4.6881 -2.0607,7.12057c-0.26975,2.92889 -0.2872,5.89836 -0.4066,8.83576q-0.26349,6.48229 -0.43009,12.968c-0.45072,17.37824 -0.4141,34.7661 -0.10139,52.14638c0.31136,17.30606 0.89637,34.60577 1.54731,51.90194q0.24408,6.48563 0.49734,12.97089c0.0387,0.99761 0.07487,1.99535 0.11622,2.99285a5.0214,5.0214 0 0 0 0.41153,2.2963c0.79808,1.40777 2.49688,1.27946 3.88889,1.25517l25.94941,-0.45274l51.89882,-0.90546l6.48736,-0.11319c1.56261,-0.02726 3.61461,0.26212 5.03012,-0.57568c1.47853,-0.8751 1.5904,-2.659 1.72187,-4.19058q0.27156,-3.16348 0.35962,-6.339a109.90156,109.90156 0 0 0 -0.3811,-12.68749c-0.14391,-1.6341 -0.082,-3.6926 -0.89459,-5.17041a4.30315,4.30315 0 0 0 -3.59557,-2.02737a58.51947,58.51947 0 0 0 -6.00288,-0.03794q-3.24292,0.0153 -6.48575,0.04616q-6.48563,0.06171 -12.97047,0.18566q-12.96948,0.24789 -25.93261,0.74459q-6.35655,0.24357 -12.71058,0.54692c-1.44151,0.06852 -1.44983,2.31892 0.00003,2.24996z"/>
  <path id="svg_46" d="m306.60866,158.13876c0.03537,-17.80587 7.52268,-37.23515 22.28579,-47.93455c7.865,-5.70007 17.80558,-8.61737 27.49767,-7.17754c5.477,0.81365 11.23491,2.92922 15.46,6.6078a2.40057,2.40057 0 0 1 1.06624,1.67172a4.89477,4.89477 0 0 1 -0.89858,2.25445l-2.44367,4.597c-0.72044,1.35526 -1.374,2.78151 -2.19746,4.07756a3.55358,3.55358 0 0 1 -3.81292,1.57939c-2.65765,-0.29539 -5.104,-1.01695 -7.81653,-0.846a23.21152,23.21152 0 0 0 -7.50676,1.78938a27.626,27.626 0 0 0 -12.08907,10.0713a40.13329,40.13329 0 0 0 -6.03939,15.71168c-0.97638,5.61727 -1.37357,11.68316 0.45126,17.17466c3.10906,9.3562 12.96115,14.79823 22.53645,14.39074c2.8123,-0.11969 5.60655,-1.25257 8.40772,-1.09369c2.89779,0.16437 4.69021,2.55432 5.88312,4.9545a22.011,22.011 0 0 1 1.60306,4.39c0.36346,1.43407 1.00156,3.51062 0.2232,4.90193c-0.61549,1.10017 -2.0586,1.43781 -3.19329,1.67889c-1.50168,0.319 -3.033,0.53909 -4.55064,0.76735c-12.35262,1.8578 -25.65879,1.845 -36.86384,-4.37938a32.34358,32.34358 0 0 1 -11.96541,-11.30358a41.757,41.757 0 0 1 -5.46633,-15.77945a56.94012,56.94012 0 0 1 -0.57062,-8.10409a1.12567,1.12567 0 0 0 -2.25,0c0.04809,11.47745 3.199,23.59194 11.74145,31.73552c9.03709,8.61509 21.88856,11.48521 34.04062,11.14156a96.006,96.006 0 0 0 10.48433,-0.93154q2.4135,-0.33509 4.814,-0.75752a11.07659,11.07659 0 0 0 4.13268,-1.30884c2.54371,-1.62875 2.37784,-4.52955 1.84393,-7.15678a21.56257,21.56257 0 0 0 -3.40381,-8.25059a8.46151,8.46151 0 0 0 -6.73146,-3.85827c-2.9862,-0.06363 -5.86958,1.0875 -8.87055,1.12243a22.05288,22.05288 0 0 1 -14.20393,-4.8606c-4.49094,-3.73371 -6.446,-9.08846 -6.62831,-14.8306a44.9408,44.9408 0 0 1 3.27531,-18.171a28.03993,28.03993 0 0 1 11.16254,-13.61562a22.70073,22.70073 0 0 1 7.76772,-2.94744a22.9856,22.9856 0 0 1 8.32449,0.40067c2.72076,0.49387 5.31692,0.29693 7.00329,-2.15564a44.63267,44.63267 0 0 0 2.408,-4.40124q1.28,-2.40792 2.56,-4.81586a6.021,6.021 0 0 0 1.07159,-3.71142a5.54193,5.54193 0 0 0 -2.45347,-3.32149a32.5488,32.5488 0 0 0 -7.50618,-4.3154c-10.08479,-4.17205 -21.632,-3.30356 -31.34572,1.46162c-17.32535,8.49916 -27.057,28.0235 -29.09883,46.53247a65.1402,65.1402 0 0 0 -0.38769,7.01562a1.12567,1.12567 0 0 0 2.25,-0.00011z"/>
  <path id="svg_47" d="m430.71314,117.552l0.00983,0.139a1.13916,1.13916 0 0 0 1.92049,0.7955a45.0272,45.0272 0 0 1 27.15085,-13.85813c5.44366,-0.66762 11.35677,-0.51825 16.43772,1.74864a15.536,15.536 0 0 1 9.34655,11.29375c1.0322,5.59358 -0.27094,11.6398 -0.9057,17.21478l-0.49325,4.332l-0.24662,2.166a4.26007,4.26007 0 0 1 -0.14793,1.25816c-0.15741,0.26827 -0.4102,0.05641 -0.76408,-0.05062c-2.72959,-0.82549 -5.38535,-1.88317 -8.06283,-2.85925c-5.24077,-1.91054 -10.61438,-3.46371 -16.25163,-3.09587a40.63718,40.63718 0 0 0 -15.39214,4.515a67.85957,67.85957 0 0 0 -7.17034,4.17629c-2.07883,1.37825 -3.83791,2.949 -4.40366,5.47982c-0.58385,2.61181 -0.12027,5.402 0.02771,8.03717q0.2609,4.6459 0.32115,9.3002q0.12057,9.30567 -0.56047,18.59875a64.33246,64.33246 0 0 1 -0.92281,9.24129c-0.31575,1.4067 -1.12653,1.816 -2.48723,1.9666c-1.61028,0.17819 -3.2345,0.27525 -4.8507,0.38365q-4.67429,0.31349 -9.35951,0.41494a67.56216,67.56216 0 0 1 -8.99578,-0.03083a2.56719,2.56719 0 0 1 -1.44588,-0.48207c-0.48822,-0.46525 -0.33608,-1.42441 -0.33088,-2.0222c0.0137,-1.57776 0.03347,-3.15549 0.05032,-4.73321q0.05187,-4.85781 0.10587,-9.71558q0.21205,-18.93273 0.52922,-37.86411q0.17063,-9.46524 0.3976,-18.92935q0.115,-4.732 0.24784,-9.46358a14.38923,14.38923 0 0 1 0.85758,-5.5355a6.10319,6.10319 0 0 1 3.189,-2.942a33.22,33.22 0 0 1 7.43586,-2.08555a58.45765,58.45765 0 0 1 9.07218,-1.07809q1.17989,-0.048 2.36116,-0.04947a4.9301,4.9301 0 0 1 1.79544,0.08332c0.74485,0.32432 0.66344,1.34047 0.71246,2.01291c0.0589,0.808 0.11425,1.61634 0.17138,2.4245l0.65126,9.21308c0.10153,1.43618 2.35232,1.44736 2.25,0l-0.71981,-10.18288c-0.1885,-2.66667 -0.19138,-5.55859 -3.52947,-5.78317a47.66116,47.66116 0 0 0 -9.337,0.52734a58.34227,58.34227 0 0 0 -9.40594,1.9944c-3.59018,1.10007 -6.48517,3.03647 -7.31931,6.88975a43.327,43.327 0 0 0 -0.53036,7.99785q-0.13284,4.98075 -0.24613,9.962q-0.47179,20.67234 -0.69806,41.34925q-0.12724,10.21364 -0.23278,20.42754q-0.02667,2.49116 -0.053,4.98232c-0.014,1.323 -0.14588,2.80231 0.77679,3.88c1.66074,1.93969 5.06494,1.44631 7.30951,1.45128q5.05464,0.01121 10.1057,-0.22464a92.91592,92.91592 0 0 0 9.87764,-0.72265c2.62689,-0.40817 3.69038,-2.22842 4.00617,-4.71056c0.42678,-3.3544 0.68986,-6.73921 0.9142,-10.1124q0.66635,-10.019 0.3999,-20.07118c-0.08959,-3.37125 -0.30575,-6.73082 -0.501,-10.09666a12.392,12.392 0 0 1 0.22293,-4.08444a6.23784,6.23784 0 0 1 2.77307,-3.417a52.09647,52.09647 0 0 1 16.31864,-7.80154a31.42039,31.42039 0 0 1 17.87055,0.91412c2.99855,0.97109 5.92243,2.15411 8.89728,3.19277c1.92208,0.67108 5.373,2.38829 6.09207,-0.67357a39.58728,39.58728 0 0 0 0.52973,-4.50367l0.60285,-5.29473c0.36354,-3.19284 0.81307,-6.39079 0.995,-9.60061c0.31738,-5.59838 -0.69514,-11.127 -4.7388,-15.2626c-3.93433,-4.02377 -9.4118,-5.87373 -14.91252,-6.37458a46.26436,46.26436 0 0 0 -31.49234,9.39222a46.81957,46.81957 0 0 0 -5.8862,5.29956l1.9205,0.79549l-0.00983,-0.139c-0.10153,-1.43616 -2.35232,-1.44734 -2.25001,0.00005z"/>
  <path id="svg_48" d="m966.26898,155.97717c-2.95663,0.118 -6.364,-0.00277 -9.00475,1.54579a5.65591,5.65591 0 0 0 -2.90374,6.33823c0.75252,2.5752 3.11051,4.37319 5.31121,5.69a45.765,45.765 0 0 0 7.98276,3.48325c4.97719,1.80694 11.01188,3.96221 13.3526,9.18206a10.87114,10.87114 0 0 1 -3.23713,12.6362c-2.346,1.77781 -5.38411,2.36075 -8.22838,2.78578a99.93509,99.93509 0 0 1 -9.98973,0.995a54.82433,54.82433 0 0 1 -19.5114,-2.1831a34.26693,34.26693 0 0 1 -13.42224,-7.98783a26.03189,26.03189 0 0 1 -7.58292,-14.65922c-0.5386,-3.31346 -0.63419,-6.68116 -0.95508,-10.01852c-0.32419,-3.37169 -0.82246,-6.7239 -1.14995,-10.09523a44.08615,44.08615 0 0 1 1.61856,-18.06817a54.34739,54.34739 0 0 1 18.911,-26.70212c17.95949,-13.1874 47.08513,-14.08941 63.1103,2.82371c7.27263,7.67562 10.38845,19.56663 5.72417,29.42546c-5.33821,11.28329 -18.62839,13.95142 -29.91117,14.48569c-3.36947,0.15956 -6.74335,0.19765 -10.11408,0.323c-1.44345,0.0537 -1.45049,2.304 0,2.25c12.51431,-0.46553 26.72578,0.08211 36.69645,-8.87734c8.36081,-7.51286 9.60512,-20.14839 5.29682,-30.11829c-4.51179,-10.44079 -14.83685,-17.36763 -25.47921,-20.4278a54.92516,54.92516 0 0 0 -36.3083,2.50624a53.32318,53.32318 0 0 0 -25.214,22.80806a51.84244,51.84244 0 0 0 -6.18719,15.96418c-1.31589,6.79069 -0.42153,13.54678 0.3872,20.33784c0.78934,6.62827 0.49269,13.71 3.03145,19.99125a29.88326,29.88326 0 0 0 9.83989,12.47215c10.399,7.8915 23.977,8.89878 36.53856,7.5893c5.70732,-0.595 12.51638,-1.05084 16.35913,-5.91352a13.1792,13.1792 0 0 0 1.72006,-13.4784c-2.41307,-5.19051 -8.03635,-7.76282 -13.10462,-9.63586a53.052,53.052 0 0 1 -9.03793,-3.83664c-2.17125,-1.29914 -5.8976,-4.08351 -3.7775,-6.95084c1.965,-2.65762 6.33174,-2.3143 9.23916,-2.43033c1.44298,-0.05757 1.45035,-2.30786 0,-2.24998z"/>
  <path id="svg_51" d="m342.58802,103.66913a30.44868,30.44868 0 0 1 0.94958,3.16572q0.18617,0.774 0.3314,1.55708q0.07815,0.42145 0.14406,0.84508c0.04992,0.32089 0.06449,0.42841 0.09471,0.67133a1.1545,1.1545 0 0 0 1.125,1.125c0.54721,-0.02451 1.20281,-0.49951 1.125,-1.125a31.77445,31.77445 0 0 0 -1.60012,-6.83735a1.12529,1.12529 0 0 0 -2.16963,0.59814z"/>
  <path id="svg_52" d="m331.59663,108.39222q0.41517,0.74475 0.78908,1.51122q0.17369,0.35793 0.3377,0.72045q0.07024,0.15537 0.13869,0.31154c0.01548,0.03531 0.17777,0.41834 0.10964,0.254a29.81846,29.81846 0 0 1 1.08976,3.10927a1.12529,1.12529 0 0 0 2.16963,-0.59814a31.00813,31.00813 0 0 0 -2.69169,-6.444a1.12518,1.12518 0 0 0 -1.94281,1.13562l0,0.00004z"/>
  <path id="svg_53" d="m321.82541,115.61069q0.57044,0.6477 1.117,1.31581q0.28111,0.34445 0.55533,0.69443q0.06451,0.08235 0.12864,0.165c-0.07146,-0.09211 -0.03217,-0.04177 0.0156,0.02094q0.14262,0.18725 0.28394,0.37547q1.04977,1.40328 1.98689,2.88566a1.12518,1.12518 0 1 0 1.94281,-1.13562a47.10591,47.10591 0 0 0 -4.43917,-5.91268a1.13165,1.13165 0 0 0 -1.591,0a1.152,1.152 0 0 0 0,1.591l-0.00004,-0.00001z"/>
  <path id="svg_54" d="m401.3235,159.33023c0.30052,4.96039 0.6909,10.31407 3.48631,14.605c1.2268,1.88314 3.4557,3.37714 5.56189,1.78087c2.19885,-1.66649 2.30764,-4.77692 2.73682,-7.25535a6.88107,6.88107 0 0 1 1.411,-3.59836c1.06437,-1.14346 2.67073,-1.32958 3.60087,0.06522c0.80108,1.20125 0.71267,2.76344 0.735,4.14375q0.04194,2.59115 0.23607,5.17537c0.23971,3.20516 0.63011,6.39874 1.08092,9.5805c0.37279,2.63116 0.92547,5.44569 2.84563,7.42712c1.77085,1.82735 4.59065,2.7282 6.935,1.45945c2.32319,-1.25733 3.24928,-4.02378 3.82623,-6.4293c0.33753,-1.40731 -1.83153,-2.00782 -2.16963,-0.59814c-0.44309,1.84741 -1.09707,4.53317 -3.13839,5.23544c-2.54646,0.876 -4.61885,-1.73767 -5.32655,-3.83939a40.0472,40.0472 0 0 1 -1.355,-8.16744c-0.33786,-2.94181 -0.586,-5.89581 -0.66465,-8.85666c-0.06288,-2.36834 0.121,-5.02347 -1.55319,-6.93414a4.22724,4.22724 0 0 0 -5.39513,-0.82576c-2.02115,1.15081 -2.86044,3.38517 -3.23777,5.5642c-0.212,1.22417 -0.69545,7.36356 -3.04685,6.13717c-1.03278,-0.53864 -1.63141,-1.99124 -2.099,-2.98849a19.14,19.14 0 0 1 -1.2153,-3.48686a44.81087,44.81087 0 0 1 -1.00425,-8.19422c-0.08716,-1.43871 -2.33776,-1.44864 -2.25,0l-0.00003,0.00002z"/>
  <path id="svg_57" d="m313.53338,127.219l6.58971,4.162a1.13516,1.13516 0 0 0 1.53922,-0.40359a1.14892,1.14892 0 0 0 -0.4036,-1.53922l-6.58969,-4.16206a1.13515,1.13515 0 0 0 -1.53921,0.40359a1.14892,1.14892 0 0 0 0.40359,1.53922l-0.00002,0.00006z"/>
  <path id="svg_58" d="m308.92531,139.12033a29.93181,29.93181 0 0 0 3.94929,1.18853a22.0135,22.0135 0 0 1 3.89668,0.649a1.13249,1.13249 0 0 0 1.38389,-0.78575a1.15254,1.15254 0 0 0 -0.78575,-1.38388a21.40454,21.40454 0 0 0 -3.89668,-0.649a29.93291,29.93291 0 0 1 -3.94929,-1.18854a1.12529,1.12529 0 0 0 -0.59814,2.16963l0,0.00001z"/>
  <path id="svg_59" d="m306.50558,154.01745a49.78708,49.78708 0 0 0 7.91011,0.2673a1.14852,1.14852 0 0 0 1.125,-1.125a1.13608,1.13608 0 0 0 -1.125,-1.125a49.787,49.787 0 0 1 -7.91011,-0.2673a1.13175,1.13175 0 0 0 -1.125,1.125a1.15158,1.15158 0 0 0 1.125,1.125z"/>
  <path id="svg_60" d="m307.08716,169.18123a40.85976,40.85976 0 0 0 7.30186,-1.71542a1.12528,1.12528 0 1 0 -0.59814,-2.16962c-1.12917,0.34554 -2.25892,0.691 -3.40273,0.98548a26.16315,26.16315 0 0 1 -3.301,0.64956a1.15292,1.15292 0 0 0 -1.125,1.125c0.02474,0.55223 0.49881,1.19657 1.125,1.125l0.00001,0z"/>
  <path id="svg_61" d="m311.54101,182.67888a9.54863,9.54863 0 0 0 3.50751,-1.59269c0.51682,-0.33723 1.02765,-0.68469 1.56077,-0.99608c0.25662,-0.14989 0.51812,-0.29185 0.78684,-0.41894c-0.004,0.00189 0.26639,-0.12155 0.13544,-0.06406c-0.13027,0.0572 0.14259,-0.05524 0.13939,-0.054c0.15394,-0.05791 0.31014,-0.10853 0.46787,-0.155a1.12529,1.12529 0 0 0 -0.59814,-2.16963a13.22779,13.22779 0 0 0 -3.46022,1.8052a17.45831,17.45831 0 0 1 -1.571,0.95c-0.13036,0.06717 -0.26512,0.12537 -0.39582,0.1915c-0.11743,0.05942 0.1541,-0.0558 -0.04492,0.01925c-0.06062,0.02286 -0.12089,0.04652 -0.1819,0.06835a5.62986,5.62986 0 0 1 -0.94393,0.24657a1.12988,1.12988 0 0 0 -0.78574,1.38389a1.15665,1.15665 0 0 0 1.38388,0.78574l-0.00003,-0.0001z"/>
  <path id="svg_62" d="m321.10792,192.35424c1.18833,-0.26165 1.76171,-1.42343 2.40336,-2.33072c0.15665,-0.2215 0.31954,-0.438 0.48138,-0.65567c0.09372,-0.126 -0.16826,0.21332 -0.002,0.00227c0.04194,-0.05325 0.08375,-0.10661 0.126,-0.15965q0.12666,-0.1591 0.25611,-0.31595q0.53088,-0.64317 1.10732,-1.24636a1.125,1.125 0 1 0 -1.591,-1.591a25.42119,25.42119 0 0 0 -2.13084,2.56642c-0.28653,0.39318 -0.54692,0.80334 -0.82632,1.20121c-0.03119,0.04441 -0.069,0.08789 -0.09688,0.13411c0.02282,-0.03787 0.152,-0.18483 0.05356,-0.07239a2.98738,2.98738 0 0 1 -0.22165,0.23554c-0.03159,0.02906 -0.1786,0.15735 -0.03243,0.03218c0.14251,-0.122 -0.01034,-0.00565 -0.0422,0.0147c-0.12647,0.08074 0.05837,-0.032 0.09984,-0.03528a1.669,1.669 0 0 0 -0.18237,0.051a1.13361,1.13361 0 0 0 -0.78575,1.38388a1.15081,1.15081 0 0 0 1.38389,0.78574l-0.00002,-0.00003z"/>
  <path id="svg_63" d="m334.80017,197.77239a1.33361,1.33361 0 0 1 0.00551,-0.181q-0.031,0.22629 0.01,0.03507q0.02436,-0.087 0.05665,-0.17142q-0.08349,0.19225 -0.00165,0.01784c0.10884,-0.188 0.21388,-0.37667 0.3293,-0.56107c0.269,-0.4297 0.5205,-0.86878 0.74608,-1.32292a16.20062,16.20062 0 0 0 1.13673,-2.98157a1.12529,1.12529 0 0 0 -2.16963,-0.59814a14.8791,14.8791 0 0 1 -0.48738,1.4971c-0.01574,0.04068 -0.17153,0.4224 -0.072,0.18722c-0.05115,0.12088 -0.10468,0.2408 -0.15944,0.36008q-0.154,0.33552 -0.32515,0.66285c-0.51217,0.98031 -1.32288,1.89287 -1.319,3.05594a1.125,1.125 0 0 0 2.25,0l-0.00002,0.00002z"/>
  <path id="svg_64" d="m795.26785,64.16452q5.36345,-0.07636 10.72323,0.18612c1.44735,0.0709 1.44364,-2.17928 0,-2.25q-5.35757,-0.26246 -10.72323,-0.18612a1.12568,1.12568 0 0 0 0,2.25z"/>
  <path id="svg_65" d="m794.95097,75.5564q5.79761,0.50967 11.61276,0.77134c1.44765,0.06514 1.44443,-2.185 0,-2.25q-5.81406,-0.2616 -11.61276,-0.77134a1.13374,1.13374 0 0 0 -1.125,1.125a1.14847,1.14847 0 0 0 1.125,1.125z"/>
  <path id="svg_66" d="m794.75545,88.678q5.20256,-0.15418 10.40086,0.19266a1.125,1.125 0 0 0 0,-2.25q-5.19327,-0.34676 -10.40086,-0.19266c-1.44465,0.04282 -1.45075,2.293 0,2.25z"/>
  <path id="svg_67" d="m794.62901,100.39754l10.66019,-0.29725a1.12569,1.12569 0 0 0 0,-2.25l-10.66019,0.29725a1.12569,1.12569 0 0 0 0,2.25z"/>
  <path id="svg_68" d="m794.75819,112.58088q4.84925,0.21585 9.7018,-0.02523a1.14907,1.14907 0 0 0 1.125,-1.125a1.13582,1.13582 0 0 0 -1.125,-1.125q-4.84806,0.24106 -9.7018,0.02523a1.125,1.125 0 0 0 0,2.25z"/>
  <path id="svg_69" d="m794.69126,125.21724q4.97865,-0.11057 9.95883,-0.07677a1.12567,1.12567 0 0 0 0,-2.25q-4.97974,-0.03379 -9.95883,0.07677a1.12568,1.12568 0 0 0 0,2.25z"/>
  <path id="svg_70" d="m795.39556,138.0298l9.63825,-0.07039a1.12568,1.12568 0 0 0 0,-2.25l-9.63825,0.07039a1.12567,1.12567 0 0 0 0,2.25z"/>
  <path id="svg_71" d="m795.5239,149.16443a65.23914,65.23914 0 0 0 10.01655,-0.21563a1.15652,1.15652 0 0 0 1.125,-1.125a1.13287,1.13287 0 0 0 -1.125,-1.125a65.23917,65.23917 0 0 1 -10.01655,0.21563a1.125,1.125 0 0 0 0,2.25z"/>
  <path id="svg_72" d="m795.90869,161.12957a92.95476,92.95476 0 0 0 9.70037,0.00237a1.1494,1.1494 0 0 0 1.125,-1.125a1.13566,1.13566 0 0 0 -1.125,-1.125a92.95476,92.95476 0 0 1 -9.70037,-0.00237a1.125,1.125 0 0 0 0,2.25z"/>
  <path id="svg_73" d="m795.65095,173.11833a110.60832,110.60832 0 0 1 11.10428,-0.25569a1.12569,1.12569 0 0 0 0,-2.25a110.60825,110.60825 0 0 0 -11.10428,0.25569a1.15255,1.15255 0 0 0 -1.125,1.125a1.13429,1.13429 0 0 0 1.125,1.125z"/>
  <path id="svg_74" d="m796.48109,185.39229q4.85347,0.06109 9.70391,-0.16339a1.14859,1.14859 0 0 0 1.125,-1.125a1.13606,1.13606 0 0 0 -1.125,-1.125q-4.84869,0.22446 -9.70391,0.16339a1.12568,1.12568 0 0 0 0,2.25z"/>
  <path id="svg_75" d="m815.15253,188.777l0.4894,11.10732c0.06355,1.44222 2.3139,1.45011 2.25,0l-0.4894,-11.10732c-0.06355,-1.44222 -2.31389,-1.45011 -2.25,0z"/>
  <path id="svg_76" d="m828.89578,188.26251c-0.29094,3.69839 0.87785,7.30821 0.80263,11.00073a1.12568,1.12568 0 0 0 2.25,0c0.07522,-3.69252 -1.09357,-7.30239 -0.80263,-11.00073a1.13451,1.13451 0 0 0 -1.125,-1.125a1.14741,1.14741 0 0 0 -1.125,1.125z"/>
  <path id="svg_77" d="m841.65562,188.24766q0.18157,5.24144 0.64465,10.46711a1.1549,1.1549 0 0 0 1.125,1.125a1.13341,1.13341 0 0 0 1.125,-1.125q-0.463,-5.22411 -0.64465,-10.46711c-0.05,-1.44388 -2.30025,-1.4506 -2.25,0z"/>
  <path id="svg_78" d="m853.68558,188.16094a66.12015,66.12015 0 0 0 1.15772,11.17982a1.13562,1.13562 0 0 0 1.38389,0.78575a1.14882,1.14882 0 0 0 0.78574,-1.38389a62.519,62.519 0 0 1 -1.07735,-10.58168a1.12568,1.12568 0 0 0 -2.25,0z"/>
  <path id="svg_79" d="m866.47721,188.065c-0.03232,3.67148 1.29047,7.17419 1.41456,10.82769c0.04905,1.444 2.29927,1.45062 2.25,0c-0.12413,-3.65491 -1.44681,-7.1637 -1.41456,-10.82769a1.12568,1.12568 0 0 0 -2.25,0z"/>
  <path id="svg_80" d="m877.51839,187.75641a20.59928,20.59928 0 0 0 0.49463,5.5909a10.01866,10.01866 0 0 1 0.27858,2.44969a18.01629,18.01629 0 0 0 0.0747,2.84934a1.13172,1.13172 0 0 0 1.38388,0.78574a1.15553,1.15553 0 0 0 0.78574,-1.38388a17.09173,17.09173 0 0 1 0.00934,-2.448a11.71886,11.71886 0 0 0 -0.32162,-2.66732a18.95605,18.95605 0 0 1 -0.45525,-5.17645c0.07814,-1.44691 -2.17209,-1.44257 -2.25,0l0,-0.00002z"/>
  <path id="svg_81" d="m959.54387,112.05668c-3.80382,0.15935 -8.65994,2.12185 -9.81466,6.11522a12.69121,12.69121 0 0 0 3.00238,11.757c3.29724,3.19889 8.01619,1.46067 11.61873,-0.13107a6.41713,6.41713 0 0 0 3.88027,-3.97855a11.055,11.055 0 0 0 0.15529,-6.12879a14.74194,14.74194 0 0 0 -1.61784,-3.08529a12.02212,12.02212 0 0 0 -2.13927,-2.69782a6.72366,6.72366 0 0 0 -2.73176,-1.52313c-0.70681,-0.18159 -1.34342,-0.15517 -2.05407,-0.28734c-1.41537,-0.26326 -2.0221,1.90478 -0.59814,2.16962a8.678,8.678 0 0 1 3.14568,0.75884a9.935,9.935 0 0 1 3.033,3.71178a6.53571,6.53571 0 0 1 0.94258,2.13217a10.60164,10.60164 0 0 1 0.01426,2.5106a4.45433,4.45433 0 0 1 -1.86074,3.813a19.14276,19.14276 0 0 1 -4.54909,1.9085a6.51628,6.51628 0 0 1 -4.65293,-0.06232a6.85414,6.85414 0 0 1 -2.90883,-3.807a11.21035,11.21035 0 0 1 -0.76544,-5.03529a5.249,5.249 0 0 1 2.711,-4.271a10.45956,10.45956 0 0 1 5.18965,-1.61912c1.44255,-0.06044 1.45015,-2.31076 -0.00007,-2.25001z"/>
  <path id="svg_82" d="m938.94351,135.608c-3.80382,0.15934 -8.65994,2.12185 -9.81467,6.11521a12.69121,12.69121 0 0 0 3.00239,11.757c3.29724,3.19889 8.01619,1.46068 11.61873,-0.13106a6.41716,6.41716 0 0 0 3.88026,-3.97855a11.055,11.055 0 0 0 0.15529,-6.12879a14.74147,14.74147 0 0 0 -1.61784,-3.08529a12.02155,12.02155 0 0 0 -2.13927,-2.69782a6.72356,6.72356 0 0 0 -2.73175,-1.52313c-0.70681,-0.18159 -1.34342,-0.15517 -2.05407,-0.28735c-1.41538,-0.26325 -2.0221,1.90478 -0.59814,2.16963a8.678,8.678 0 0 1 3.14567,0.75884a9.93507,9.93507 0 0 1 3.033,3.71178a6.53552,6.53552 0 0 1 0.94257,2.13216a10.6012,10.6012 0 0 1 0.01427,2.51061a4.45433,4.45433 0 0 1 -1.86075,3.813a19.14218,19.14218 0 0 1 -4.54909,1.9085a6.51623,6.51623 0 0 1 -4.65293,-0.06232a6.85423,6.85423 0 0 1 -2.90883,-3.807a11.21044,11.21044 0 0 1 -0.76543,-5.03528a5.249,5.249 0 0 1 2.711,-4.271a10.45966,10.45966 0 0 1 5.18966,-1.61911c1.44251,-0.06045 1.45017,-2.31077 -0.00007,-2.25003z"/>
  <path id="svg_83" d="m939.98389,167.40092c-3.3771,0.14148 -7.65688,1.88737 -8.68075,5.4282a11.19058,11.19058 0 0 0 2.65,10.372c2.92426,2.837 7.08674,1.32265 10.28666,-0.0912a5.71758,5.71758 0 0 0 3.44342,-3.54911a9.77227,9.77227 0 0 0 0.13512,-5.41042a12.95434,12.95434 0 0 0 -1.42243,-2.71945a10.59982,10.59982 0 0 0 -1.88426,-2.377a6.00973,6.00973 0 0 0 -2.44141,-1.36287c-0.68169,-0.17513 -1.12066,-0.126 -1.78727,-0.25c-1.41537,-0.26325 -2.02209,1.90478 -0.59813,2.16963a7.48848,7.48848 0 0 1 2.70218,0.64554a8.493,8.493 0 0 1 2.5866,3.17724a5.52135,5.52135 0 0 1 0.80541,1.82031a9.21429,9.21429 0 0 1 0.0072,2.14566a3.72618,3.72618 0 0 1 -1.54668,3.19156a16.50918,16.50918 0 0 1 -3.92331,1.64587a5.53856,5.53856 0 0 1 -3.936,-0.03949a5.80348,5.80348 0 0 1 -2.46385,-3.22516a9.62969,9.62969 0 0 1 -0.6608,-4.34241a4.41286,4.41286 0 0 1 2.28646,-3.59007a8.9513,8.9513 0 0 1 4.44182,-1.38887c1.44265,-0.06039 1.45027,-2.31071 0.00002,-2.24996z"/>
  <path id="svg_84" d="m518.58593,104.17208a188.80815,188.80815 0 0 0 31.61961,-0.20742c1.43036,-0.12964 1.444,-2.38087 0,-2.25a188.80815,188.80815 0 0 1 -31.61961,0.20742c-1.44394,-0.1118 -1.43671,2.13876 0,2.25z"/>
  <path id="svg_85" d="m527.57838,83.61505a78.238,78.238 0 0 0 7.19617,6.22495a1.12281,1.12281 0 0 0 1.3633,-0.17591a62.425,62.425 0 0 1 5.89367,-5.79966c1.09889,-0.94665 -0.49857,-2.53206 -1.591,-1.591a62.425,62.425 0 0 0 -5.89367,5.79966l1.3633,-0.17591a73.60135,73.60135 0 0 1 -6.74079,-5.8731c-1.03463,-1.0147 -2.62692,0.575 -1.591,1.591l0.00002,-0.00003z"/>
  <path id="svg_86" d="m516.62082,181.65094c11.7045,-0.0601 23.39381,0.581 35.07585,1.23171c1.44675,0.08059 1.4422,-2.16967 0,-2.25c-11.68205,-0.65073 -23.37135,-1.29181 -35.07585,-1.23171a1.12567,1.12567 0 0 0 0,2.25z"/>
  <path id="svg_87" d="m527.63478,103.81067c-1.07232,9.81918 -0.66359,19.69811 -0.1513,29.53871c0.51629,9.91759 0.79127,19.75369 0.48382,29.6829a123.3502,123.3502 0 0 0 0.31285,16.7284c0.1498,1.42547 2.40141,1.44083 2.25,0c-1.0397,-9.89349 0.04624,-19.84674 -0.10672,-29.76437c-0.15236,-9.879 -1.03217,-19.73045 -1.19626,-29.609a132.36705,132.36705 0 0 1 0.65761,-16.57659c0.157,-1.43744 -2.09424,-1.42632 -2.25,0l0,-0.00005z"/>
  <path id="svg_88" d="m539.02431,103.9341q0.93146,15.03252 0.93,30.10213c-0.00621,10.03112 -0.59505,20.04124 -0.70506,30.06816a114.849,114.849 0 0 0 0.92811,16.95725c0.19669,1.42809 2.365,0.82019 2.16962,-0.59814c-1.36457,-9.90743 -0.78522,-19.93848 -0.43887,-29.89352q0.51932,-14.92632 0.11856,-29.86459q-0.22887,-8.39164 -0.75238,-16.77129c-0.08913,-1.43838 -2.33976,-1.44848 -2.25,0l0.00002,0z"/>
  <path id="svg_91" d="m628.77556,178.91031a42.19917,42.19917 0 0 1 6.7757,-9.61394a41.05,41.05 0 0 1 4.18616,-3.85878c1.46074,-1.16933 3.16253,-2.492 5.06892,-1.47158c1.52731,0.81752 2.43172,2.53649 3.08633,4.07325a12.42087,12.42087 0 0 1 1.07284,5.22843a6.5365,6.5365 0 0 1 -2.04841,4.72184a10.24557,10.24557 0 0 1 -5.16733,2.12337a22.93961,22.93961 0 0 1 -6.59075,0.067a18.40457,18.40457 0 0 1 -3.26641,-0.63816c-1.14191,-0.35739 -2.21268,-0.91743 -3.32485,-1.3545l0.67234,0.517l-0.46454,-0.92954c-0.64738,-1.2954 -2.5889,-0.1572 -1.94281,1.13562c0.26786,0.536 0.44764,1.0977 1.0025,1.38984a20.448,20.448 0 0 0 3.63466,1.46264a24.99938,24.99938 0 0 0 7.41092,0.85421c4.42975,-0.09941 9.64735,-1.32857 11.57249,-5.80164c1.72755,-4.014 0.38294,-9.16333 -2.1059,-12.584a6.1945,6.1945 0 0 0 -5.62007,-2.86278c-2.24607,0.28485 -4.13033,2.04829 -5.77505,3.4717a43.6335,43.6335 0 0 0 -10.11955,12.9344c-0.66454,1.28416 1.27634,2.42345 1.94281,1.13562z"/>
  <path id="svg_92" d="m725.79683,181.83042a42.19948,42.19948 0 0 1 6.7757,-9.61394a41.05,41.05 0 0 1 4.18617,-3.85877c1.46074,-1.16934 3.16252,-2.492 5.06891,-1.47159c1.52732,0.81752 2.43172,2.53649 3.08634,4.07325a12.421,12.421 0 0 1 1.07284,5.22843a6.5366,6.5366 0 0 1 -2.04841,4.72185a10.24568,10.24568 0 0 1 -5.16729,2.12335a22.94,22.94 0 0 1 -6.59075,0.067a18.40575,18.40575 0 0 1 -3.26642,-0.63816c-1.1419,-0.35739 -2.21267,-0.91744 -3.32484,-1.35451l0.67233,0.517l-0.46454,-0.92955c-0.64737,-1.2954 -2.58889,-0.1572 -1.94281,1.13562c0.26786,0.536 0.44764,1.09771 1.00251,1.38985a20.44693,20.44693 0 0 0 3.63466,1.46263a24.99931,24.99931 0 0 0 7.41091,0.85421c4.42975,-0.09941 9.64736,-1.32857 11.57249,-5.80163c1.72756,-4.014 0.38295,-9.16333 -2.10589,-12.584a6.19452,6.19452 0 0 0 -5.62008,-2.86277c-2.24606,0.28485 -4.13033,2.04829 -5.775,3.47169a43.63366,43.63366 0 0 0 -10.11956,12.9344c-0.66461,1.28422 1.2763,2.42347 1.94273,1.13564z"/>
  <path id="svg_93" d="m693.88453,27.7436c-0.73086,1.39295 -1.97553,3.16429 -1.48283,4.822a3.09723,3.09723 0 0 0 2.56668,2.22771a3.336,3.336 0 0 0 2.199,-0.36745a3.54614,3.54614 0 0 0 0.88412,-0.70437c0.09838,-0.10839 0.17824,-0.23712 0.26795,-0.35251q0.14373,-0.19722 0.29431,-0.38931l-0.24577,0.19129c0.258,1.89637 -0.00248,3.79946 0.2481,5.69523a8.158,8.158 0 0 0 2.45,4.63645c1.181,1.2118 2.82949,2.46977 4.63122,1.9623c1.56043,-0.43951 2.31263,-1.95384 2.78971,-3.36839c0.22346,-0.66256 0.46625,-2.11147 1.37119,-2.04567c0.9258,0.06731 1.33158,1.54057 1.54844,2.226c1.02776,3.24862 1.186,9.29916 6.11166,8.58276c1.4275,-0.20762 0.82052,-2.376 -0.59813,-2.16963c-2.27,0.33016 -2.5039,-3.75817 -2.83248,-5.15391c-0.41418,-1.75941 -0.909,-4.04419 -2.50659,-5.135a2.98807,2.98807 0 0 0 -4.30452,0.78312c-0.88267,1.33233 -1.12942,5.28984 -3.50774,3.71259a6.53954,6.53954 0 0 1 -2.9956,-5.57531c0.00257,-1.79085 0.48768,-4.26234 -0.785,-5.76145a1.99585,1.99585 0 0 0 -1.97267,-0.7464c-0.9651,0.21842 -1.10674,1.11865 -1.8338,1.58968a1.05755,1.05755 0 0 1 -1.64911,-0.54831c-0.15716,-0.88264 0.9046,-2.23261 1.29459,-2.97589c0.67214,-1.281 -1.26907,-2.4197 -1.94281,-1.13562l0.00008,0.00009z"/>
  <path id="svg_94" d="m700.03463,55.56468l13.10678,0.58692c1.44765,0.06483 1.44446,-2.18531 0,-2.25l-13.10678,-0.58692c-1.44766,-0.06483 -1.44447,2.18531 0,2.25z"/>
  <path id="svg_95" d="m695.01503,67.429c8.044,-0.205 16.09252,-0.09113 24.13657,-0.29614a1.12569,1.12569 0 0 0 0,-2.25c-8.04405,0.205 -16.09253,0.09114 -24.13657,0.29614a1.12569,1.12569 0 0 0 0,2.25z"/>
  <path id="svg_96" d="m601.77509,54.5919c5.1163,0.22633 10.238,0.30436 15.35434,0.53069c1.44769,0.064 1.44457,-2.1861 0,-2.25c-5.11631,-0.22633 -10.238,-0.30436 -15.35434,-0.53069c-1.44769,-0.06405 -1.44457,2.18609 0,2.25z"/>
  <path id="svg_97" d="m598.59419,64.21275c7.38749,-0.18293 14.77542,0.18293 22.16292,0a1.12569,1.12569 0 0 0 0,-2.25c-7.3875,0.18292 -14.77542,-0.18293 -22.16292,0a1.12569,1.12569 0 0 0 0,2.25z"/>
  <path id="svg_99" d="m600.54098,20.98657a12.97048,12.97048 0 0 0 -3.024,5.90956a2.56954,2.56954 0 0 0 2.89349,3.01332a5.78091,5.78091 0 0 0 4.24946,-2.57218a4.41926,4.41926 0 0 0 0.34167,-0.70615l-0.47008,-0.142q-0.644,-0.3688 -0.41755,-0.05242c-0.056,0.12378 0.1853,0.68874 0.20484,0.85925a19.64474,19.64474 0 0 1 -0.06615,2.80556c-0.09126,2.77715 -0.26605,5.566 -0.26577,8.34462a7.54854,7.54854 0 0 0 2.25512,5.6564c1.36317,1.33533 3.188,2.22814 5.03987,1.287c2.00925,-1.02111 2.59179,-3.13239 3.3957,-5.0563l0.10769,-0.26614q0.45292,-0.452 -0.06755,-0.45946q-0.558,-0.22653 0.04309,0.26259l0.18753,0.31289a4.78612,4.78612 0 0 1 0.447,1.96354c0.07552,1.29142 -0.0898,2.57825 0.09773,3.86581c0.31752,2.17993 1.78854,4.12854 4.11524,4.22441c1.44788,0.05965 1.44514,-2.19046 0,-2.25c-2.36971,-0.09764 -1.9456,-3.69546 -1.95219,-5.23691a6.5607,6.5607 0 0 0 -1.47512,-4.66888c-1.4639,-1.48931 -2.85161,-0.30008 -3.50875,1.24823c-0.55932,1.31784 -1.3066,4.61512 -3.35584,4.184a4.41868,4.41868 0 0 1 -2.15722,-1.75589a5.05369,5.05369 0 0 1 -0.92019,-3.08434c-0.03221,-2.35614 0.13737,-4.72912 0.21476,-7.08411c0.043,-1.30943 0.99021,-7.68814 -2.04436,-7.17063c-0.86829,0.14808 -1.22278,0.90786 -1.60706,1.60534a3.43282,3.43282 0 0 1 -1.94531,1.50078c-0.46718,0.15657 -0.85322,0.31236 -1.0468,-0.15c-0.21948,-0.52416 0.27579,-1.22189 0.488,-1.69614a13.38727,13.38727 0 0 1 1.83372,-3.1008c0.911,-1.111 -0.67191,-2.71184 -1.591,-1.591l0.00003,0.00005z"/>
 </g>
</svg>